<?xml version="1.0" encoding="utf-8"?>
<!-- Generator: Adobe Illustrator 17.1.0, SVG Export Plug-In . SVG Version: 6.00 Build 0)  -->
<!DOCTYPE svg PUBLIC "-//W3C//DTD SVG 1.1//EN" "http://www.w3.org/Graphics/SVG/1.1/DTD/svg11.dtd">
<svg version="1.1" id="Layer_1" xmlns="http://www.w3.org/2000/svg" xmlns:xlink="http://www.w3.org/1999/xlink" x="0px" y="0px"
	 viewBox="0 0 90 90" enable-background="new 0 0 90 90" xml:space="preserve">
<g>
	<rect x="31.3" y="26.4" fill="#FFFFFF" width="42.1" height="8.6"/>
	<rect x="31.3" y="40.2" fill="#FFFFFF" width="42.1" height="8.6"/>
	<rect x="31.3" y="54.9" fill="#FFFFFF" width="42.1" height="8.6"/>
	<path fill="#FFFFFF" d="M21,26.4c-2.4,0-4.4,2-4.4,4.4c0,2.4,2,4.4,4.4,4.4c2.4,0,4.4-2,4.4-4.4C25.4,28.4,23.4,26.4,21,26.4z"/>
	<path fill="#FFFFFF" d="M21,40.1c-2.4,0-4.4,2-4.4,4.4c0,2.4,2,4.4,4.4,4.4c2.4,0,4.4-2,4.4-4.4C25.4,42,23.4,40.1,21,40.1z"/>
	<path fill="#FFFFFF" d="M21,54.8c-2.4,0-4.4,2-4.4,4.4c0,2.4,2,4.4,4.4,4.4c2.4,0,4.4-2,4.4-4.4C25.4,56.8,23.4,54.8,21,54.8z"/>
</g>
</svg>
