<?xml version="1.0" encoding="utf-8"?>
<!-- Generator: Adobe Illustrator 18.0.0, SVG Export Plug-In . SVG Version: 6.00 Build 0)  -->
<!DOCTYPE svg PUBLIC "-//W3C//DTD SVG 1.1//EN" "http://www.w3.org/Graphics/SVG/1.1/DTD/svg11.dtd">
<svg version="1.1" id="Layer_1" xmlns="http://www.w3.org/2000/svg" xmlns:xlink="http://www.w3.org/1999/xlink" x="0px" y="0px" width="100px" height="100px"
	 viewBox="0 0 100 100" enable-background="new 0 0 100 100" xml:space="preserve">
<g>
	<path fill="#FFFFFF" d="M36.8,70.3l-3.4-5.5l-7.1,1.3l9.3-16.6H17.5V93h31V49.5L36.8,70.3z"/>
	<path fill="#FFFFFF" d="M87.9,28.8H67.3c1.2-0.6,2.3-1.3,3.2-2c3.7-2.6,5.6-6,5.6-9.2c0-2.7-1.3-6.6-3.1-8.2
		c-1.9-1.6-4.3-2.6-7-2.6c-2.8,0-5.4,1-7.7,2.5c-3.4,2.3-6,7.2-7.9,10.9c-0.1,0.2-0.2,0.4-0.3,0.6c-0.7-1.5-1.5-4.3-2.4-5.6
		c-1.6-2.3-3.5-4.3-5.8-5.8c-2.2-1.5-4.9-2.5-7.7-2.5s-5.4,1.2-7.3,3c-1.9,1.8-3.3,5.9-3.3,8.7c0,1.7,0.5,3.4,1.5,5.1
		c1.3,2,3.3,3.8,6.1,5.2h-19v17.3h35.6V28.8H52v17.3h35.6L87.9,28.8z M32.5,23.4c-1.4-0.9-2.3-1.8-2.8-2.6C29.2,20,29,18.6,29,17.9
		c0-1.2,0.6-3.2,1.6-4.2s2.4-1.6,3.6-1.6l0,0c1.6,0,3.1,0.5,4.7,1.6c2.3,1.6,4.6,5.8,6.1,8.9c0.8,1.6,1.4,3.2,1.8,4.8
		C39.8,26.6,35.2,25.1,32.5,23.4L32.5,23.4z M56.9,19.6c1.3-1.8,2.8-4.9,4.4-5.9c1.6-1,3.1-1.6,4.7-1.6l0,0c1.3,0,2.6,0.5,3.5,1.3
		s1.3,2.2,1.3,3.2c0,1.2-0.6,3.9-3.4,5.9c-2.6,1.9-7.2,3.9-14.2,5.2C53.9,25,55.2,22,56.9,19.6L56.9,19.6z"/>
	<path fill="#FFFFFF" d="M73.9,66.1l-7.1-1.2l-3.4,5.5L51.9,49.9v43.3h30.9V49.7H64.6L73.9,66.1z"/>
</g>
</svg>
