<?xml version="1.0" encoding="utf-8"?>
<!-- Generator: Adobe Illustrator 18.0.0, SVG Export Plug-In . SVG Version: 6.00 Build 0)  -->
<!DOCTYPE svg PUBLIC "-//W3C//DTD SVG 1.1//EN" "http://www.w3.org/Graphics/SVG/1.1/DTD/svg11.dtd">
<svg version="1.1" id="Layer_1" xmlns="http://www.w3.org/2000/svg" xmlns:xlink="http://www.w3.org/1999/xlink" x="0px" y="0px" width="100px" height="100px"
	 viewBox="0 0 100 100" enable-background="new 0 0 100 100" xml:space="preserve">
<g>
	<rect x="30.2" y="23.1" fill="#FFFFFF" width="60.8" height="12.4"/>
	<rect x="30.2" y="43" fill="#FFFFFF" width="60.8" height="12.4"/>
	<rect x="30.2" y="64.3" fill="#FFFFFF" width="60.8" height="12.4"/>
	<path fill="#FFFFFF" d="M15.4,23.1c-3.5,0-6.4,2.9-6.4,6.4s2.9,6.4,6.4,6.4s6.4-2.9,6.4-6.4S18.8,23.1,15.4,23.1z"/>
	<path fill="#FFFFFF" d="M15.4,42.9c-3.5,0-6.4,2.9-6.4,6.4s2.9,6.4,6.4,6.4s6.4-2.9,6.4-6.4C21.8,45.6,18.8,42.9,15.4,42.9z"/>
	<path fill="#FFFFFF" d="M15.4,64.1c-3.5,0-6.4,2.9-6.4,6.4s2.9,6.4,6.4,6.4s6.4-2.9,6.4-6.4S18.8,64.1,15.4,64.1z"/>
</g>
</svg>
