<?xml version="1.0" encoding="utf-8"?>
<!-- Generator: Adobe Illustrator 18.0.0, SVG Export Plug-In . SVG Version: 6.00 Build 0)  -->
<!DOCTYPE svg PUBLIC "-//W3C//DTD SVG 1.1//EN" "http://www.w3.org/Graphics/SVG/1.1/DTD/svg11.dtd">
<svg version="1.1" id="Layer_1" xmlns="http://www.w3.org/2000/svg" xmlns:xlink="http://www.w3.org/1999/xlink" x="0px" y="0px"
	 viewBox="0 0 841.9 1190.6" enable-background="new 0 0 841.9 1190.6" xml:space="preserve">
<g>
	<path fill="#FFFFFF" d="M308.7,715.6L280,669.2L219.6,680l79.5-141H144.2v370.6h264.1V539.1L308.7,715.6z M308.7,715.6"/>
	<path fill="#FFFFFF" d="M743.4,362.1H568c10.2-5.2,19.5-10.7,27.6-16.6c31.2-22.3,47.7-50.7,47.7-78.7c0-23.1-11-56.1-26.8-69.8
		c-15.8-13.9-36.9-22.1-59.4-22.1c-24,0-46.3,8.2-65.4,21.1c-28.8,19.2-51.3,60.9-67.4,92.7c-0.7,1.6-1.6,3.1-2.4,4.7
		c-5.8-12.4-12.7-36.8-20.6-48c-13.6-19.4-30-36.7-49-49.4c-19.1-12.9-41.4-21.1-65.4-21.1s-45.8,10.1-62.2,25.6
		c-16.3,15.3-27.8,49.8-27.8,74.4c-0.1,14.3,4.1,29.3,12.7,43.1c10.9,17.1,28.1,32.1,51.9,44.3H100.1l0.4,147.5h303.2V362.1h36.9
		v147.5h303.2L743.4,362.1z M272,316.1c-12.2-7.7-19.6-15.5-24.1-22.3c-4.2-7-5.7-19-5.7-25c-0.1-10,4.9-27.3,13.6-35.4
		c8.6-8.2,20.2-13.2,30.8-13.2h0.3c13.5,0,26.8,4.6,40.3,13.5c20,13.2,38.8,49,51.9,75.4c6.9,13.4,12.1,27.5,15.6,41.2
		C334.1,343.8,294.8,330.4,272,316.1L272,316.1z M479.5,284c11-15.7,24-41.5,37.2-50.5c13.3-8.7,26.8-13.3,40.3-13.5h0.1
		c11.2,0,22.1,4.5,29.4,11c7.4,6.6,11.2,18.7,11.2,27.2c-0.1,10.1-5.4,33.3-28.8,50.5c-22.3,16.2-61.1,32.9-120.7,44.5
		C453.9,329.7,465,304.8,479.5,284L479.5,284z M479.5,284"/>
	<path fill="#FFFFFF" d="M624.6,679.4l-60.4-10.2l-28.6,47l-98.3-174.8v368.3h262.7V539.1h-155L624.6,679.4z M624.6,679.4"/>
</g>
</svg>
