<?xml version="1.0" encoding="utf-8"?>
<!-- Generator: Adobe Illustrator 18.0.0, SVG Export Plug-In . SVG Version: 6.00 Build 0)  -->
<!DOCTYPE svg PUBLIC "-//W3C//DTD SVG 1.1//EN" "http://www.w3.org/Graphics/SVG/1.1/DTD/svg11.dtd">
<svg version="1.1" id="Capa_1" xmlns="http://www.w3.org/2000/svg" xmlns:xlink="http://www.w3.org/1999/xlink" x="0px" y="0px"
	 viewBox="0 0 100 100" enable-background="new 0 0 100 100" xml:space="preserve">
<g>
	<path fill="#FFFFFF" d="M78.2,62H23.8c-0.4,0-0.6,0.3-0.6,0.6v4.1c0,0.4,0.3,0.6,0.6,0.6h2.5v4c0,1.7,1.4,3,3,3h2c1.7,0,3-1.4,3-3
		v-4h34.8v4c0,1.7,1.4,3,3,3h2c1.7,0,3-1.4,3-3v-4h0.9c0.4,0,0.6-0.3,0.6-0.6v-4.1C78.9,62.3,78.6,62,78.2,62"/>
	<path fill="#FFFFFF" d="M74.4,48.2c-1.8-7.7-7.7-16.7-9.4-16.7c-0.8,0-7.4-0.6-14-0.6c-6.7,0-13.4,0.6-14.2,0.6
		c-1.4,0-7.6,9-9.4,16.7c-6,1.2-4.9,11.4-4.9,11.8c0,0.3,0.3,0.6,0.6,0.6h0l27.7-0.1l27.7,0.1h0c0.3,0,0.6-0.2,0.6-0.6
		C79.3,59.6,80.4,49.3,74.4,48.2 M30.4,57.5c-1.6,0-2.8-1.3-2.8-2.8c0-1.6,1.3-2.8,2.8-2.8c1.6,0,2.8,1.3,2.8,2.8
		C33.2,56.3,31.9,57.5,30.4,57.5 M32.1,48.5c-0.1,0-0.1,0-0.2-0.1c0-0.1-0.1-0.1,0-0.2c0.1-0.5,3.6-12.4,6.1-13.3
		c2.4-0.8,12.4-0.9,12.9-0.9c0,0,1,0,2.5,0c4.7,0,10.2,0.2,11.3,1c1.5,1.1,5.8,12.8,5.9,13.3c0,0.1,0,0.1,0,0.2
		c0,0.1-0.1,0.1-0.2,0.1H32.1z M71.5,57.5c-1.6,0-2.8-1.3-2.8-2.8c0-1.6,1.3-2.8,2.8-2.8c1.6,0,2.8,1.3,2.8,2.8
		C74.3,56.3,73.1,57.5,71.5,57.5"/>
</g>
</svg>
