<?xml version="1.0" encoding="utf-8"?>
<!-- Generator: Adobe Illustrator 18.0.0, SVG Export Plug-In . SVG Version: 6.00 Build 0)  -->
<!DOCTYPE svg PUBLIC "-//W3C//DTD SVG 1.1//EN" "http://www.w3.org/Graphics/SVG/1.1/DTD/svg11.dtd">
<svg version="1.1" id="Capa_1" xmlns="http://www.w3.org/2000/svg" xmlns:xlink="http://www.w3.org/1999/xlink" x="0px" y="0px"
	 viewBox="0 0 100 100" enable-background="new 0 0 100 100" xml:space="preserve">
<path fill="#FFFFFF" d="M47.9,19c-7.2,0.7-14.3,3.8-19.9,9.3c-5.6,5.6-8.7,12.6-9.3,19.9c8,0.9,16.4,5,23.4,11.9
	c6.9,6.9,11,15.4,11.9,23.4c7.3-0.7,14.3-3.8,19.9-9.3c5.6-5.6,8.7-12.6,9.3-19.9c-7.9-0.9-16.4-5-23.3-11.9
	C52.9,35.4,48.8,27,47.9,19L47.9,19z"/>
<path fill="#FFFFFF" d="M47.9,19"/>
<path fill="#FFFFFF" d="M83.3,50.3c-0.2-8-3.4-15.8-9.5-21.9c-6.1-6.1-14-9.2-21.9-9.5c0.9,7,4.6,14.4,10.8,20.6
	C68.9,45.7,76.4,49.4,83.3,50.3L83.3,50.3z"/>
<path fill="#FFFFFF" d="M83.3,50.3"/>
<path fill="#FFFFFF" d="M18.6,52.2c0.2,8,3.4,15.9,9.5,21.9c6.1,6.1,14,9.2,21.9,9.5c-0.9-6.9-4.6-14.4-10.8-20.6
	C33,56.8,25.5,53.2,18.6,52.2L18.6,52.2z"/>
<path fill="#FFFFFF" d="M18.6,52.2"/>
</svg>
