<?xml version="1.0" encoding="utf-8"?>
<!-- Generator: Adobe Illustrator 18.0.0, SVG Export Plug-In . SVG Version: 6.00 Build 0)  -->
<!DOCTYPE svg PUBLIC "-//W3C//DTD SVG 1.1//EN" "http://www.w3.org/Graphics/SVG/1.1/DTD/svg11.dtd">
<svg version="1.1" id="Capa_1" xmlns="http://www.w3.org/2000/svg" xmlns:xlink="http://www.w3.org/1999/xlink" x="0px" y="0px"
	 viewBox="0 0 100 100" enable-background="new 0 0 100 100" xml:space="preserve">
<g>
	<path fill="#FFFFFF" d="M39.3,56.9c-1-0.2-2.1-0.5-3-1c-0.8-0.4-1.6-0.9-2.3-1.5c-0.2-0.1-0.3-0.3-0.4-0.4l1.7,24.6
		c0,0.2,0,0.4,0.1,0.6c0,0.1,0.1,0.2,0.1,0.4c0.5,1.6,2,2.8,3.7,2.8h28.2c0.2,0,0.4,0,0.6,0c0.1,0,0.1,0,0.2,0c0.1,0,0.1,0,0.2,0
		c0,0,0,0,0,0c0.9-0.2,1.7-0.8,2.2-1.6c0-0.1,0.1-0.1,0.1-0.2c0.1-0.1,0.1-0.2,0.2-0.4c0.1-0.1,0.1-0.2,0.1-0.3
		c0-0.1,0.1-0.2,0.1-0.4c0-0.2,0.1-0.4,0.1-0.6c0-0.1,0-0.1,0-0.2L72.8,54c-0.1,0.1-0.3,0.3-0.4,0.4c-0.7,0.6-1.5,1.1-2.3,1.5
		c-0.9,0.5-2,0.8-3,1l-0.7,22.7H61l0.7-21.9c-0.6,0.7-1.4,1.3-2.2,1.9c-1.1,0.7-2.4,1.3-3.7,1.6v18.4h-5.3V61.2
		c-1.3-0.3-2.6-0.8-3.7-1.6c-0.8-0.5-1.5-1.2-2.2-1.9l0.7,21.9h-5.3L39.3,56.9z M39.3,56.9"/>
	<path fill="#FFFFFF" d="M32.6,47.1c0.1,0.6,0.3,1.2,0.5,1.8c0.6,1.5,1.6,2.8,2.9,3.7c0.9,0.7,2,1.2,3.1,1.5
		c0.7,0.2,1.4,0.3,2.2,0.3c1.1,0,2.1-0.2,3.1-0.5c0.2-0.1,0.4-0.1,0.5-0.2c1,2.3,3,4.1,5.5,4.8c0.8,0.3,1.7,0.4,2.6,0.4
		c0.9,0,1.8-0.1,2.6-0.4c2.4-0.8,4.4-2.5,5.5-4.8c0.2,0.1,0.4,0.2,0.5,0.2c1,0.4,2,0.5,3.1,0.5c0.8,0,1.5-0.1,2.2-0.3
		c1.1-0.3,2.2-0.8,3.1-1.5c1.3-1,2.3-2.2,2.9-3.7c0.2-0.6,0.4-1.2,0.5-1.8c3.6-1.1,6.2-4.5,6.2-8.5c0-4.3-3.1-8-7.2-8.8
		c-0.7-4.2-4.4-7.5-8.8-7.5c-0.9,0-1.8,0.1-2.7,0.4c-1.4-3-4.5-5.1-8-5.1c-3.5,0-6.6,2.1-8.1,5.1c-0.8-0.3-1.8-0.4-2.7-0.4
		c-4.4,0-8.1,3.2-8.8,7.5c-4.1,0.8-7.2,4.4-7.2,8.8C26.4,42.6,29,46,32.6,47.1L32.6,47.1z M32.6,47.1"/>
	<path fill="#FFFFFF" d="M18.9,78.6L18.9,78.6c0.4,1.5,1.7,2.6,3.3,2.8c1.9,0.2,3.5-1.2,3.8-3c1.8-0.5,3.1-2.2,3.1-4.2
		c0-2.4-2-4.4-4.4-4.4c-0.1,0-0.1,0-0.2,0c-0.4-1.6-1.8-2.8-3.5-2.8c-2,0-3.6,1.6-3.6,3.6c0,0.4,0.1,0.7,0.2,1
		c-1.3,0.5-2.3,1.8-2.3,3.3C15.3,77,16.9,78.6,18.9,78.6L18.9,78.6z M18.9,78.6"/>
	<path fill="#FFFFFF" d="M22.9,61.4c0.4,1.2,1.5,2,2.8,2c1.6,0,2.9-1.3,2.9-2.9c0,0,0-0.1,0-0.1c1.1-0.2,1.8-1.2,1.8-2.3
		c0-1.3-1.1-2.4-2.4-2.4c-0.2,0-0.5,0-0.7,0.1c-0.3-0.9-1.2-1.5-2.2-1.5c-1.3,0-2.4,1.1-2.4,2.4v0.1c-1,0.2-1.7,1.1-1.8,2.1
		C20.8,60.1,21.7,61.2,22.9,61.4L22.9,61.4z M22.9,61.4"/>
</g>
</svg>
