<?xml version="1.0" encoding="utf-8"?>
<!-- Generator: Adobe Illustrator 18.0.0, SVG Export Plug-In . SVG Version: 6.00 Build 0)  -->
<!DOCTYPE svg PUBLIC "-//W3C//DTD SVG 1.1//EN" "http://www.w3.org/Graphics/SVG/1.1/DTD/svg11.dtd">
<svg version="1.1" id="Capa_1" xmlns="http://www.w3.org/2000/svg" xmlns:xlink="http://www.w3.org/1999/xlink" x="0px" y="0px"
	 viewBox="0 0 100 100" enable-background="new 0 0 100 100" xml:space="preserve">
<path fill="#FFFFFF" d="M35.1,72.9v1.6l7.8,4.8h14.2l7.8-4.8v-1.6c0,0,8.2-3.5,8.2-12.2c0,0,1-2.4-11.5-6.6c-12.5-4.2,0-18,0-18
	v-1.2c0,0,0.3-2-7.9-2.4c1.2-7.2,11-5.9,7.8-9C58.1,20.2,50,20.7,50,20.7s-8.1-0.5-11.4,2.8c-3.1,3.1,6.6,1.8,7.8,9
	c-8.3,0.4-7.9,2.4-7.9,2.4v1.2c0,0,12.5,13.8,0,18c-12.5,4.2-11.5,6.6-11.5,6.6C26.9,69.4,35.1,72.9,35.1,72.9L35.1,72.9z
	 M35.1,72.9"/>
</svg>
