<?xml version="1.0" encoding="utf-8"?>
<!-- Generator: Adobe Illustrator 18.0.0, SVG Export Plug-In . SVG Version: 6.00 Build 0)  -->
<!DOCTYPE svg PUBLIC "-//W3C//DTD SVG 1.1//EN" "http://www.w3.org/Graphics/SVG/1.1/DTD/svg11.dtd">
<svg version="1.1" id="Capa_1" xmlns="http://www.w3.org/2000/svg" xmlns:xlink="http://www.w3.org/1999/xlink" x="0px" y="0px"
	 viewBox="0 0 841.9 1190.6" enable-background="new 0 0 841.9 1190.6" xml:space="preserve">
<g>
	<path fill="#FFFFFF" d="M504.9,596.7h193.1c16.6,0,30.1-13.5,30.1-30.1V208.8c0-16.6-13.5-30.1-30.1-30.1l0,0H163.8
		c-16.6,0-30.1,13.5-30.1,30.1v357.8c0,16.6,13.5,30.1,30.1,30.1H340H504.9z M668,536.6H193.9V238.8H668V536.6z M668,536.6"/>
	<path fill="#FFFFFF" d="M588.7,630.5c0,10.8-8.8,19.6-19.6,19.6H292.8c-10.8,0-19.6-8.8-19.6-19.6l0,0c0-10.8,8.8-19.6,19.6-19.6
		H569C579.9,610.9,588.7,619.7,588.7,630.5L588.7,630.5z"/>
</g>
</svg>
