<?xml version="1.0" encoding="utf-8"?>
<!-- Generator: Adobe Illustrator 18.0.0, SVG Export Plug-In . SVG Version: 6.00 Build 0)  -->
<!DOCTYPE svg PUBLIC "-//W3C//DTD SVG 1.1//EN" "http://www.w3.org/Graphics/SVG/1.1/DTD/svg11.dtd">
<svg version="1.1" id="Capa_1" xmlns="http://www.w3.org/2000/svg" xmlns:xlink="http://www.w3.org/1999/xlink" x="0px" y="0px"
	 viewBox="0 1190.6 100 100" enable-background="new 0 1190.6 100 100" xml:space="preserve">
<g>
	<path fill="#FFFFFF" d="M59.7,1264.5h25.4c2.2,0,4-1.8,4-4v-47.1c0-2.2-1.8-4-4-4l0,0H14.9c-2.2,0-4,1.8-4,4v47.1c0,2.2,1.8,4,4,4
		H38H59.7L59.7,1264.5z M81.2,1256.6H18.8v-39.2h62.4V1256.6z"/>
	<path fill="#FFFFFF" d="M70.8,1269c0,1.4-1.2,2.6-2.6,2.6H31.8c-1.4,0-2.6-1.2-2.6-2.6l0,0c0-1.4,1.2-2.6,2.6-2.6h36.3
		C69.6,1266.4,70.8,1267.5,70.8,1269L70.8,1269z"/>
</g>
</svg>
