<?xml version="1.0" encoding="utf-8"?>
<!-- Generator: Adobe Illustrator 18.0.0, SVG Export Plug-In . SVG Version: 6.00 Build 0)  -->
<!DOCTYPE svg PUBLIC "-//W3C//DTD SVG 1.1//EN" "http://www.w3.org/Graphics/SVG/1.1/DTD/svg11.dtd">
<svg version="1.1" id="Capa_1" xmlns="http://www.w3.org/2000/svg" xmlns:xlink="http://www.w3.org/1999/xlink" x="0px" y="0px"
	 viewBox="0 0 100 100" enable-background="new 0 0 100 100" xml:space="preserve">
<path fill="#FFFFFF" d="M45.6,42.4c1.5-1.5,4-1.5,5.5,0c1.5,1.5,1.5,4,0,5.5c-1.5,1.5-4,1.5-5.5,0C44.1,46.4,44.1,44,45.6,42.4
	L45.6,42.4z"/>
<path fill="#FFFFFF" d="M48.1,31.9v3.2c5.7,0,10.4,4.7,10.4,10.4h3.2C61.7,38,55.6,31.9,48.1,31.9L48.1,31.9z"/>
<path fill="#FFFFFF" d="M42.7,47.7c-0.3-0.8-0.5-1.6-0.5-2.5c0-2.2,1.2-4.2,3-5.3c0-1.1,0.5-2.2,1.2-3.1c0.3-0.4,0.8-0.7,1.2-1
	c-4.8,0.4-8.6,4.4-8.6,9.4c0,0.1,0,0.1,0,0.1c0.3,0.5,0.6,1,1.1,1.4C40.8,47.4,41.8,47.7,42.7,47.7L42.7,47.7z"/>
<path fill="#FFFFFF" d="M49.9,35.9L49.9,35.9c-1.1,0.1-2.1,0.6-2.9,1.4c-0.5,0.6-0.9,1.3-1,2.1c0.7-0.3,1.5-0.5,2.4-0.5
	c2.5,0,4.6,1.5,5.6,3.6c1.1,0,2.2,0.4,3,1.1c0.3,0.2,0.5,0.5,0.7,0.8C57.4,40.1,54.1,36.6,49.9,35.9L49.9,35.9z"/>
<path fill="#FFFFFF" d="M56.5,44.3c-0.6-0.5-1.4-0.8-2.2-0.9c0.2,0.6,0.3,1.2,0.3,1.8c0,1.7-0.6,3.2-1.8,4.4
	c-0.4,0.4-0.9,0.8-1.5,1.1c0,1-0.2,2-0.8,2.8c-0.2,0.4-0.5,0.7-0.9,1c2-0.3,3.9-1.2,5.4-2.7c1.6-1.6,2.5-3.6,2.7-5.7
	C57.5,45.5,57.1,44.8,56.5,44.3L56.5,44.3z"/>
<path fill="#FFFFFF" d="M50.5,51c-0.7,0.2-1.4,0.4-2.1,0.4c-2.2,0-4.1-1.2-5.2-2.9c-0.1,0-0.3,0-0.4,0c-1.2,0-2.3-0.4-3.2-1.2
	c-0.1-0.1-0.3-0.2-0.4-0.4c0.8,4.2,4.5,7.4,8.9,7.6c0.7-0.3,1.3-0.8,1.8-1.5C50.2,52.5,50.4,51.8,50.5,51L50.5,51z"/>
<g>
	<path fill="#FFFFFF" d="M38.4,48c3.8-3.7,9.8-3.7,13.6,0c3.8,3.8,3.8,9.8,0,13.6c-3.8,3.8-9.8,3.8-13.6,0
		C34.6,57.9,34.6,51.8,38.4,48L38.4,48z"/>
	<path fill="#FFFFFF" d="M44.5,22.2V30C58.6,30,70,41.4,70,55.5h7.9C77.9,37.1,62.9,22.2,44.5,22.2L44.5,22.2z"/>
	<path fill="#FFFFFF" d="M31.3,61c-0.8-1.9-1.3-4-1.3-6.2c0-5.5,2.9-10.3,7.3-12.9c0.1-2.8,1.1-5.5,3-7.6c0.9-1,1.8-1.8,2.9-2.4
		c-11.8,1-21.1,10.9-21.1,22.9c0,0.1,0,0.2,0,0.4c0.6,1.3,1.5,2.5,2.7,3.5C26.7,60.2,28.9,61,31.3,61L31.3,61z"/>
	<path fill="#FFFFFF" d="M48.8,32.1L48.8,32.1c-2.7,0.2-5.2,1.5-7,3.5c-1.3,1.5-2.1,3.3-2.4,5.2c1.8-0.8,3.8-1.2,5.9-1.2
		c6.1,0,11.3,3.6,13.7,8.7c2.7,0.1,5.3,1,7.4,2.8c0.7,0.6,1.3,1.2,1.8,1.9C67.3,42.4,59.2,33.7,48.8,32.1L48.8,32.1z"/>
	<path fill="#FFFFFF" d="M65.1,52.7c-1.5-1.3-3.4-2.1-5.3-2.3c0.4,1.4,0.7,2.9,0.7,4.4c0,4.1-1.6,7.9-4.5,10.7
		c-1.1,1.1-2.3,2-3.7,2.7c0.1,2.4-0.6,4.8-1.9,6.9c-0.6,0.9-1.3,1.8-2.1,2.5c5-0.7,9.6-2.9,13.3-6.5c3.8-3.8,6.1-8.7,6.6-14
		C67.5,55.4,66.5,53.9,65.1,52.7L65.1,52.7z"/>
	<path fill="#FFFFFF" d="M50.3,69.1C48.7,69.7,47,70,45.2,70c-5.4,0-10.1-2.8-12.8-7.1c-0.4,0-0.7,0-1.1,0c-2.8,0-5.6-1-7.8-2.8
		c-0.3-0.3-0.7-0.6-1-0.9c2,10.3,11,18.2,21.8,18.6c1.7-0.8,3.2-2.1,4.3-3.7C49.7,72.6,50.2,70.9,50.3,69.1L50.3,69.1z"/>
</g>
</svg>
