<?xml version="1.0" encoding="utf-8"?>
<!-- Generator: Adobe Illustrator 18.0.0, SVG Export Plug-In . SVG Version: 6.00 Build 0)  -->
<!DOCTYPE svg PUBLIC "-//W3C//DTD SVG 1.1//EN" "http://www.w3.org/Graphics/SVG/1.1/DTD/svg11.dtd">
<svg version="1.1" id="Capa_1" xmlns="http://www.w3.org/2000/svg" xmlns:xlink="http://www.w3.org/1999/xlink" x="0px" y="0px"
	 viewBox="0 0 100 100" enable-background="new 0 0 100 100" xml:space="preserve">
<g>
	<path fill="#FFFFFF" d="M74.5,31.7h-3.1v45.8h3.1c3.4,0,6.1-2.8,6.1-6.1V37.8C80.6,34.4,77.8,31.7,74.5,31.7L74.5,31.7z M19.4,37.8
		v33.6c0,3.4,2.8,6.1,6.1,6.1h3.1V31.7h-3.1C22.2,31.7,19.4,34.4,19.4,37.8L19.4,37.8z M60.4,25.3c-2.1-1-5.4-2.8-10.4-2.8
		c-5,0-8.3,1.8-10.4,2.8v6.4h-6.7v45.8h34.2V31.7h-6.7V25.3z M56.7,31.7H43.3v-4.1c1.6-0.7,4-1.4,6.7-1.4c2.8,0,5.1,0.7,6.7,1.4
		V31.7z M56.7,31.7"/>
</g>
</svg>
