<?xml version="1.0" encoding="utf-8"?>
<!-- Generator: Adobe Illustrator 16.0.0, SVG Export Plug-In . SVG Version: 6.00 Build 0)  -->
<!DOCTYPE svg PUBLIC "-//W3C//DTD SVG 1.1//EN" "http://www.w3.org/Graphics/SVG/1.1/DTD/svg11.dtd">
<svg version="1.1" id="Layer_1" xmlns="http://www.w3.org/2000/svg" xmlns:xlink="http://www.w3.org/1999/xlink" x="0px" y="0px"
	 width="90px" height="90px" viewBox="0 0 90 90" enable-background="new 0 0 90 90" xml:space="preserve">
<g>
	<rect x="32.266" y="26.387" fill="#FFFFFF" width="42.12" height="8.566"/>
	<rect x="32.266" y="40.184" fill="#FFFFFF" width="42.12" height="8.566"/>
	<rect x="32.266" y="54.933" fill="#FFFFFF" width="42.12" height="8.562"/>
	<path fill="#FFFFFF" d="M22.013,26.387c-2.431,0-4.399,1.971-4.399,4.401c0,2.427,1.968,4.401,4.399,4.401
		c2.429,0,4.402-1.975,4.402-4.401C26.415,28.357,24.442,26.387,22.013,26.387z"/>
	<path fill="#FFFFFF" d="M22.013,40.065c-2.431,0-4.399,1.968-4.399,4.398c0,2.434,1.968,4.407,4.399,4.407
		c2.429,0,4.402-1.974,4.402-4.407C26.415,42.033,24.442,40.065,22.013,40.065z"/>
	<path fill="#FFFFFF" d="M22.013,54.814c-2.431,0-4.399,1.971-4.399,4.397c0,2.437,1.968,4.401,4.399,4.401
		c2.429,0,4.402-1.965,4.402-4.401C26.415,56.785,24.442,54.814,22.013,54.814z"/>
</g>
</svg>
