<?xml version="1.0" encoding="utf-8"?>
<!-- Generator: Adobe Illustrator 18.0.0, SVG Export Plug-In . SVG Version: 6.00 Build 0)  -->
<!DOCTYPE svg PUBLIC "-//W3C//DTD SVG 1.1//EN" "http://www.w3.org/Graphics/SVG/1.1/DTD/svg11.dtd">
<svg version="1.1" id="Layer_1" xmlns="http://www.w3.org/2000/svg" xmlns:xlink="http://www.w3.org/1999/xlink" x="0px" y="0px"
	 viewBox="0 0 90 90" enable-background="new 0 0 90 90" xml:space="preserve">
<g>
	<path fill="#FFFFFF" d="M37,56.7l-1.9-3.1L31,54.3l5.4-9.5H25.9v25h17.8v-25L37,56.7z M37,56.7"/>
	<path fill="#FFFFFF" d="M66.3,32.9H54.5c0.7-0.4,1.3-0.7,1.9-1.1c2.1-1.5,3.2-3.4,3.2-5.3c0-1.6-0.7-3.8-1.8-4.7
		c-1.1-0.9-2.5-1.5-4-1.5c-1.6,0-3.1,0.6-4.4,1.4c-1.9,1.3-3.5,4.1-4.5,6.3c0,0.1-0.1,0.2-0.2,0.3c-0.4-0.8-0.9-2.5-1.4-3.2
		c-0.9-1.3-2-2.5-3.3-3.3c-1.3-0.9-2.8-1.4-4.4-1.4c-1.6,0-3.1,0.7-4.2,1.7c-1.1,1-1.9,3.4-1.9,5c0,1,0.3,2,0.9,2.9
		c0.7,1.2,1.9,2.2,3.5,3H22.9l0,9.9h20.5v-9.9h2.5v9.9h20.5L66.3,32.9z M34.5,29.8c-0.8-0.5-1.3-1-1.6-1.5c-0.3-0.5-0.4-1.3-0.4-1.7
		c0-0.7,0.3-1.8,0.9-2.4c0.6-0.6,1.4-0.9,2.1-0.9h0c0.9,0,1.8,0.3,2.7,0.9c1.3,0.9,2.6,3.3,3.5,5.1c0.5,0.9,0.8,1.9,1.1,2.8
		C38.7,31.6,36.1,30.7,34.5,29.8L34.5,29.8z M48.5,27.6c0.7-1.1,1.6-2.8,2.5-3.4c0.9-0.6,1.8-0.9,2.7-0.9h0c0.8,0,1.5,0.3,2,0.7
		c0.5,0.4,0.8,1.3,0.8,1.8c0,0.7-0.4,2.2-1.9,3.4c-1.5,1.1-4.1,2.2-8.1,3C46.8,30.7,47.6,29,48.5,27.6L48.5,27.6z M48.5,27.6"/>
	<path fill="#FFFFFF" d="M58.3,54.3l-4.1-0.7l-1.9,3.2L45.7,45v24.8h17.7v-25H53L58.3,54.3z M58.3,54.3"/>
</g>
</svg>
