<?xml version="1.0" encoding="utf-8"?>
<!-- Generator: Adobe Illustrator 16.0.0, SVG Export Plug-In . SVG Version: 6.00 Build 0)  -->
<!DOCTYPE svg PUBLIC "-//W3C//DTD SVG 1.1//EN" "http://www.w3.org/Graphics/SVG/1.1/DTD/svg11.dtd">
<svg version="1.1" id="Layer_1" xmlns="http://www.w3.org/2000/svg" xmlns:xlink="http://www.w3.org/1999/xlink" x="0px" y="0px"
	 width="90px" height="90px" viewBox="0 0 90 90" enable-background="new 0 0 90 90" xml:space="preserve">
<path fill="#FFFFFF" d="M43.371,20.125L24.585,38.91c-0.659,0.659-0.858,1.65-0.5,2.513c0.356,0.861,1.199,1.423,2.13,1.423h10.027
	v12.331h17.516V42.846h10.028c0.935,0,1.775-0.562,2.132-1.423c0.117-0.285,0.172-0.584,0.172-0.881
	c0-0.601-0.231-1.191-0.674-1.632L46.629,20.125c-0.428-0.429-1.021-0.676-1.629-0.676C44.393,19.448,43.798,19.695,43.371,20.125z"
	/>
<rect x="36.242" y="57.972" fill="#FFFFFF" width="17.516" height="10.478"/>
</svg>
