<?xml version="1.0" encoding="utf-8"?>
<!-- Generator: Adobe Illustrator 16.0.0, SVG Export Plug-In . SVG Version: 6.00 Build 0)  -->
<!DOCTYPE svg PUBLIC "-//W3C//DTD SVG 1.1//EN" "http://www.w3.org/Graphics/SVG/1.1/DTD/svg11.dtd">
<svg version="1.1" id="Layer_1" xmlns="http://www.w3.org/2000/svg" xmlns:xlink="http://www.w3.org/1999/xlink" x="0px" y="0px"
	 width="90px" height="90px" viewBox="0 0 90 90" enable-background="new 0 0 90 90" xml:space="preserve">
<path fill="#FFFFFF" d="M63.611,33.522c0-10.275-8.331-18.613-18.613-18.613c-10.279,0-18.61,8.338-18.61,18.613
	c0,2.734,0.603,5.322,1.663,7.664L28.03,41.19l16.962,33.901L61.266,42.56c0.208-0.36,0.382-0.739,0.562-1.115l0.125-0.254
	l-0.003-0.003C63.012,38.848,63.611,36.261,63.611,33.522z M45,39.68c-4.619,0-8.363-3.744-8.363-8.362
	c0-4.619,3.744-8.362,8.363-8.362s8.363,3.743,8.363,8.362C53.363,35.936,49.619,39.68,45,39.68z"/>
</svg>
