<?xml version="1.0" encoding="utf-8"?>
<!-- Generator: Adobe Illustrator 16.0.0, SVG Export Plug-In . SVG Version: 6.00 Build 0)  -->
<!DOCTYPE svg PUBLIC "-//W3C//DTD SVG 1.1//EN" "http://www.w3.org/Graphics/SVG/1.1/DTD/svg11.dtd">
<svg version="1.1" id="Isolation_Mode" xmlns="http://www.w3.org/2000/svg" xmlns:xlink="http://www.w3.org/1999/xlink" x="0px"
	 y="0px" width="90px" height="90px" viewBox="0 0 90 90" enable-background="new 0 0 90 90" xml:space="preserve">
<path fill="#FFFFFF" d="M51.128,63.847c-3.12,2.345-5.275,3.524-6.461,3.524c-0.777,0-1.162-0.557-1.162-1.657
	c0-2.046,1.505-8.648,4.518-19.815c1.107-4.146,1.802-6.902,2.091-8.26c0.286-1.378,0.434-2.428,0.434-3.179
	c0-1.628-0.564-2.446-1.698-2.446c-1.158,0-2.755,0.545-4.79,1.635c-2.028,1.096-4.921,2.99-8.678,5.697l-0.125,0.551l0.414,0.944
	l0.458,0.167c3.089-1.79,4.832-2.802,5.224-3.002c0.381-0.205,0.785-0.311,1.196-0.311c0.638,0,0.956,0.473,0.956,1.412
	c0,0.8-0.385,2.995-1.14,6.586c-0.756,3.59-2.04,8.593-3.836,15.002c-0.498,1.739-0.914,3.324-1.265,4.746
	c-0.342,1.424-0.513,2.758-0.513,3.991c0,0.973,0.231,1.817,0.703,2.534c0.468,0.717,1.113,1.084,1.95,1.084
	c0.575,0,1.296-0.189,2.173-0.566c0.869-0.367,2.329-1.251,4.373-2.629c2.04-1.385,4.032-2.818,5.967-4.313L52,65.047l-0.456-1.078
	L51.128,63.847z"/>
<path fill="#FFFFFF" d="M49.597,18.324c-1.33,0-2.451,0.562-3.378,1.685c-0.927,1.117-1.39,2.412-1.39,3.874
	c0,1.045,0.324,1.906,0.973,2.568c0.649,0.666,1.454,0.994,2.422,0.994c1.302,0,2.378-0.589,3.235-1.762
	c0.863-1.178,1.285-2.512,1.285-4.002c0-1.072-0.291-1.906-0.869-2.484C51.3,18.619,50.53,18.324,49.597,18.324z"/>
</svg>
