<?xml version="1.0" encoding="utf-8"?>
<!-- Generator: Adobe Illustrator 18.0.0, SVG Export Plug-In . SVG Version: 6.00 Build 0)  -->
<!DOCTYPE svg PUBLIC "-//W3C//DTD SVG 1.1//EN" "http://www.w3.org/Graphics/SVG/1.1/DTD/svg11.dtd">
<svg version="1.1" id="Layer_1" xmlns="http://www.w3.org/2000/svg" xmlns:xlink="http://www.w3.org/1999/xlink" x="0px" y="0px"  width="90px" height="90px" 
	 viewBox="0 0 90 90" enable-background="new 0 0 90 90" xml:space="preserve">
<path fill="#FFFFFF" d="M35.6,34.5c0,0-11.5,1.3-19.4,2.1c-0.6,0.1-1.3,0.5-1.5,1.3c-0.3,0.6,0,1.4,0.5,1.9
	c5.8,5.3,14.4,13.2,14.4,13.2s-2.4,11.4-4,19.1c-0.1,0.6,0.1,1.4,0.6,1.9c0.6,0.4,1.4,0.4,1.9,0.1c6.8-3.9,16.9-9.5,16.9-9.5
	s10.2,5.8,16.9,9.5c0.6,0.4,1.4,0.4,1.9-0.1c0.6-0.4,0.8-1.2,0.6-1.9c-1.5-7.6-4-19.1-4-19.1s8.8-7.9,14.4-13.2
	c0.5-0.5,0.8-1.2,0.5-1.9c-0.3-0.6-0.9-1.2-1.5-1.3c-7.7-0.9-19.4-2.1-19.4-2.1s-4.5-10.8-7.7-17.8c-0.3-0.6-0.9-1-1.7-1
	c-0.8,0-1.4,0.4-1.7,1C40.3,23.7,35.6,34.5,35.6,34.5L35.6,34.5z"/>
</svg>
