<?xml version="1.0" encoding="utf-8"?>
<!-- Generator: Adobe Illustrator 16.0.0, SVG Export Plug-In . SVG Version: 6.00 Build 0)  -->
<!DOCTYPE svg PUBLIC "-//W3C//DTD SVG 1.1//EN" "http://www.w3.org/Graphics/SVG/1.1/DTD/svg11.dtd">
<svg version="1.1" id="Layer_1" xmlns="http://www.w3.org/2000/svg" xmlns:xlink="http://www.w3.org/1999/xlink" x="0px" y="0px"
	 width="90px" height="90px" viewBox="0 0 90 90" enable-background="new 0 0 90 90" xml:space="preserve">
<g>
	<path fill="#FFFFFF" d="M30.676,21.806c6.213,0,10.286,4.832,10.286,13.393c0,9.388-4.901,14.082-10.7,14.082
		c-5.66,0-10.423-4.487-10.493-13.461c0-8.975,4.833-14.014,10.838-14.014H30.676z M30.331,25.464
		c-3.728,0-5.799,4.487-5.799,10.148c-0.138,5.66,2.071,10.01,5.868,10.01c4.004,0,5.798-4.211,5.798-10.148
		c0-5.453-1.587-10.01-5.798-10.01H30.331z M29.779,68.263l26.438-46.525h3.866L33.645,68.263H29.779z M59.945,40.375
		c6.213,0,10.285,4.763,10.285,13.323c0,9.525-4.9,14.221-10.699,14.221c-5.661,0-10.424-4.557-10.493-13.531
		c0-9.043,4.832-14.013,10.838-14.013H59.945z M59.6,44.034c-3.728,0-5.799,4.418-5.799,10.078
		c-0.138,5.729,2.071,10.147,5.868,10.147c4.004,0,5.799-4.28,5.799-10.286c0-5.453-1.588-9.939-5.799-9.939H59.6z"/>
</g>
</svg>
