<?xml version="1.0" encoding="utf-8"?>
<!-- Generator: Adobe Illustrator 18.0.0, SVG Export Plug-In . SVG Version: 6.00 Build 0)  -->
<!DOCTYPE svg PUBLIC "-//W3C//DTD SVG 1.1//EN" "http://www.w3.org/Graphics/SVG/1.1/DTD/svg11.dtd">
<svg version="1.1" id="Layer_1" xmlns="http://www.w3.org/2000/svg" xmlns:xlink="http://www.w3.org/1999/xlink" x="0px" y="0px"  width="25px" height="50px"  viewBox="0 0 25 50" enable-background="new 0 0 25 50" xml:space="preserve">
<path fill="#666666" d="M18.2,9.5c0-3.6-2.9-6.5-6.5-6.5C8.2,3,5.3,5.9,5.3,9.5c0,0.9,0.2,1.9,0.6,2.7l0,0l5.9,11.8l5.7-11.3
	c0.1-0.1,0.1-0.3,0.2-0.4l0-0.1l0,0C18,11.3,18.2,10.4,18.2,9.5z M16.3,7.6L11,13c-0.1,0.1-0.4,0.1-0.5,0L7.2,9.7
	c-0.1-0.1-0.1-0.4,0-0.5L8,8.4c0.1-0.1,0.4-0.1,0.5,0l2.2,2.2L15,6.3c0.1-0.1,0.4-0.1,0.5,0l0.8,0.8C16.5,7.3,16.5,7.5,16.3,7.6z"/>
<path fill="#020202" d="M18.2,33.7c0-3.6-2.9-6.5-6.5-6.5c-3.6,0-6.5,2.9-6.5,6.5c0,1,0.2,1.8,0.6,2.7l0,0l5.9,11.8l5.7-11.3
	c0.1-0.1,0.1-0.3,0.2-0.4l0-0.1l0,0C18,35.6,18.2,34.7,18.2,33.7z M16.3,31.9L11,37.2c-0.1,0.1-0.4,0.1-0.5,0l-3.3-3.3
	c-0.1-0.1-0.1-0.4,0-0.5L8,32.6c0.1-0.1,0.4-0.1,0.5,0l2.2,2.2l4.3-4.3c0.1-0.1,0.4-0.1,0.5,0l0.8,0.8
	C16.5,31.5,16.5,31.7,16.3,31.9z"/>
</svg>
