<?xml version="1.0" encoding="utf-8"?>
<!-- Generator: Adobe Illustrator 18.0.0, SVG Export Plug-In . SVG Version: 6.00 Build 0)  -->
<!DOCTYPE svg PUBLIC "-//W3C//DTD SVG 1.1//EN" "http://www.w3.org/Graphics/SVG/1.1/DTD/svg11.dtd">
<svg version="1.1" id="Capa_1" xmlns="http://www.w3.org/2000/svg" xmlns:xlink="http://www.w3.org/1999/xlink" x="0px" y="0px"
	 viewBox="0 0 100 100" enable-background="new 0 0 100 100" xml:space="preserve">
<g>
	<g>
		<path fill="#FFFFFF" d="M82.5,25c-2.2-2.2-5.7-2.2-7.9,0c-0.5,0.5-0.8,1-1.2,1.6l-9.7,0l-2.3,2.3l2.3,2.3l1.4-1.4l1.4,1.4l1.4-1.4
			l1.4,1.4l4.2,0c0.3,0.6,0.6,1.1,1.2,1.6c2.2,2.2,5.7,2.2,7.9,0C84.7,30.7,84.7,27.2,82.5,25L82.5,25z M79.5,30.3
			c-0.8-0.8-0.8-2,0-2.8c0.8-0.8,2-0.8,2.8,0c0.8,0.8,0.8,2,0,2.8C81.5,31.1,80.3,31.1,79.5,30.3L79.5,30.3z M79.5,30.3"/>
	</g>
	<path fill="#FFFFFF" d="M77.2,65H22.8c-0.4,0-0.6,0.3-0.6,0.6v4.1c0,0.4,0.3,0.6,0.6,0.6h2.5v4c0,1.7,1.4,3,3,3h2c1.7,0,3-1.4,3-3
		v-4h34.8v4c0,1.7,1.4,3,3,3h2c1.7,0,3-1.4,3-3v-4h0.9c0.4,0,0.6-0.3,0.6-0.6v-4.1C77.9,65.3,77.6,65,77.2,65"/>
	<path fill="#FFFFFF" d="M73.4,51.2c-1.8-7.7-7.7-16.7-9.4-16.7c-0.8,0-7.4-0.6-14-0.6c-6.7,0-13.4,0.6-14.2,0.6
		c-1.4,0-7.6,9-9.4,16.7c-6,1.2-4.9,11.4-4.9,11.8c0,0.3,0.3,0.6,0.6,0.6h0l27.7-0.1l27.7,0.1h0c0.3,0,0.6-0.2,0.6-0.6
		C78.3,62.6,79.4,52.3,73.4,51.2 M29.4,60.5c-1.6,0-2.8-1.3-2.8-2.8c0-1.6,1.3-2.8,2.8-2.8c1.6,0,2.8,1.3,2.8,2.8
		C32.2,59.3,30.9,60.5,29.4,60.5 M31.1,51.5c-0.1,0-0.1,0-0.2-0.1c0-0.1-0.1-0.1,0-0.2c0.1-0.5,3.6-12.4,6.1-13.3
		c2.4-0.8,12.4-0.9,12.9-0.9c0,0,1,0,2.5,0c4.7,0,10.2,0.2,11.3,1c1.5,1.1,5.8,12.8,5.9,13.3c0,0.1,0,0.1,0,0.2
		c0,0.1-0.1,0.1-0.2,0.1H31.1z M70.5,60.5c-1.6,0-2.8-1.3-2.8-2.8c0-1.6,1.3-2.8,2.8-2.8c1.6,0,2.8,1.3,2.8,2.8
		C73.3,59.3,72.1,60.5,70.5,60.5"/>
</g>
</svg>
