<?xml version="1.0" encoding="utf-8"?>
<!-- Generator: Adobe Illustrator 18.0.0, SVG Export Plug-In . SVG Version: 6.00 Build 0)  -->
<!DOCTYPE svg PUBLIC "-//W3C//DTD SVG 1.1//EN" "http://www.w3.org/Graphics/SVG/1.1/DTD/svg11.dtd">
<svg version="1.1" id="Capa_1" xmlns="http://www.w3.org/2000/svg" xmlns:xlink="http://www.w3.org/1999/xlink" x="0px" y="0px"
	 viewBox="0 0 100 100" enable-background="new 0 0 100 100" xml:space="preserve">
<g>
	<path fill="#FFFFFF" d="M20.9,77.7c0.5,2,2.4,2.4,4.3,3c2.6,0.8,5.2,1.4,7.9,1.9c6,1.1,12.3,1.5,18.4,1.1c2.9-0.2,5.4-0.8,7.5-2.9
		c1.6-1.6,1.5-5.3,1.7-7.4c0.4-5.9-0.2-11.6,1.6-17.4c0.6-2.2,1.3-6.4,3.5-7.5c1.6-0.8,2.1-0.8,2.6,0.9c0.4,1.3,0.6,2.7,0.9,4.1
		c1,6.3,2.3,28.1,2.3,28.8c0,0.5,2.2,0.1,2.5-0.1c1.1-0.6,0.4-4.4,0.4-5.5c0-3.2,0.1-6.4,0.2-9.6c0.3-6.3,0.9-12.6,1.8-18.9
		c0.5-3.2,1.1-6.5,1.8-9.6c0.3-1.5,0.7-3,1.1-4.5c0.5-2.2,0.3-5.2,0.3-5.2c-0.2-1.2-0.8-2.3-1.5-3.3c-1.8-2.7-4.2-5.1-6.7-7.2
		c-0.8-0.6-1.6-1.3-2.4-1.9c-1.3-0.5-1.1-0.4-1.9,1c-3,5-6.6,9.5-9.3,14.7c-2.9,5.5-4.8,11.6-7.9,17c-1.6,2.7-3.4,4.2-6.5,4.9
		c-1.3,0.3-2.6,0.7-3.7,1.4c-1.1,0.7-1.9,1.7-3,2.4c-4.7,2.6-11.6,1.2-15.4,5.6c-1.5,1.7-0.5,4.5-0.4,6.6
		C21,72.4,20.3,75.3,20.9,77.7L20.9,77.7z M20.9,77.7"/>
</g>
</svg>
