<?xml version="1.0" encoding="utf-8"?>
<!-- Generator: Adobe Illustrator 18.0.0, SVG Export Plug-In . SVG Version: 6.00 Build 0)  -->
<!DOCTYPE svg PUBLIC "-//W3C//DTD SVG 1.1//EN" "http://www.w3.org/Graphics/SVG/1.1/DTD/svg11.dtd">
<svg version="1.1" id="Capa_1" xmlns="http://www.w3.org/2000/svg" xmlns:xlink="http://www.w3.org/1999/xlink" x="0px" y="0px"
	 viewBox="0 0 100 100" enable-background="new 0 0 100 100" xml:space="preserve">
<path fill="#FFFFFF" d="M80.4,53c-7.3-10-14.3-15.6-20.9-18.1c0.5-0.4,1-0.8,1.5-1.3c1.4-1.4,2.6-3,3.5-4.9c0.9-1.9,1.7-4,1.7-6.7
	c-2.7,0.1-4.8,0.8-6.7,1.7c-1.9,0.9-3.5,2.1-4.9,3.6c-0.2,0.1-0.3,0.3-0.4,0.5c-0.6-1-1.7-1.7-3-1.7c-1.5,0-2.7,0.9-3.2,2.2
	c-0.3-0.3-0.6-0.6-0.9-0.9c-1.4-1.4-3-2.6-4.9-3.6c-1.9-0.9-4-1.6-6.7-1.7c0.1,2.7,0.8,4.8,1.7,6.7c0.9,1.9,2.1,3.5,3.6,4.9
	c0.4,0.4,0.8,0.7,1.3,1.1c-14.3,5.2-23.6,21.8-23.6,21.8H19c-0.3,0.8-0.5,1.7-0.5,2.6c0,0,7.9,20.4,12.2,20.4h41.2
	c4.2,0,11.5-20.4,11.5-20.4C83.4,56.6,82.2,54.4,80.4,53L80.4,53z M62.9,45.3l1.5,1l-2.2,3.5l-1.5-1L62.9,45.3z M55.6,49.3l-1.8,0.2
	l-0.4-4.1l1.8-0.2L55.6,49.3z M46.3,49.4l-1.8,0.1l-0.1-4.1l1.8-0.1L46.3,49.4z M37.9,45.2l1.5,1l-2.2,3.5l-1.5-1L37.9,45.2z
	 M71.1,75.1H31.4c-1.8-1.5-5.4-10.6-8.3-16.8c0-0.1,0.1-0.2,0.1-0.3c1.4,2.2,3.8,3.6,6.5,3.6c3.3,0,6.2-2.1,7.2-5.1h0.6
	c1.2,2.5,3.9,4.3,6.9,4.3c3,0,5.7-1.8,6.9-4.3h0c1.1,3,3.9,5.1,7.3,5.1c2.4,0,4.5-1.1,5.9-2.8c1.4,1.7,3.5,2.8,5.9,2.8
	c3.3,0,6.1-2.1,7.2-5c0.6,0.4,1,1.1,1.1,1.8C76.2,64.5,72.8,73.5,71.1,75.1L71.1,75.1z M71.1,75.1"/>
</svg>
