<?xml version="1.0" encoding="utf-8"?>
<!-- Generator: Adobe Illustrator 18.0.0, SVG Export Plug-In . SVG Version: 6.00 Build 0)  -->
<!DOCTYPE svg PUBLIC "-//W3C//DTD SVG 1.1//EN" "http://www.w3.org/Graphics/SVG/1.1/DTD/svg11.dtd">
<svg version="1.1" id="Capa_1" xmlns="http://www.w3.org/2000/svg" xmlns:xlink="http://www.w3.org/1999/xlink" x="0px" y="0px"
	 viewBox="0 0 100 100" enable-background="new 0 0 100 100" xml:space="preserve">
<g>
	<path fill="#FFFFFF" d="M23.5,32.9c2.2,5.2,6,10.3,11.2,12.5c0.6,0.2,1.3,0.4,2,0.6c1.4-2.1,3-3.8,4.9-5.1c1.6-1.2,3.3-2.1,5-2.8
		c-0.5-0.3-1-0.7-1.6-1c-2.2-1.1-4.5-2.1-6.8-3.2c2.2,0.6,4.6,0.8,6.7,1.6c1.3,0.5,2.5,1.1,3.6,1.9c3.3-1.1,6.8-1.7,10.2-2.1
		c-2.8-4.6-8.8-8.4-13.3-10.1c-4.7-1.8-10-2-15.2-2.5C27,22.2,23.5,21,21,19.6c-0.6-0.3-1.2,0.2-1,0.9C21.2,24.5,21.9,29,23.5,32.9
		L23.5,32.9z M23.5,32.9"/>
	<path fill="#FFFFFF" d="M78.7,32.3c-5.9,3.2-12.6,3.6-19.3,4.4C56.2,37,53,37.4,50,38.4c-0.7,0.2-1.3,0.4-2,0.7
		c-1.9,0.7-3.8,1.7-5.5,3c-1.6,1.2-3,2.6-4.1,4.2c-1.8,2.5-3.1,5.4-4.1,8.4c-1.9,5.5-2.8,11.3-2.6,17c0.1,2.3,0.1,4.8,0.7,7.1
		c0.1,0.5,0.3,1.1,0.6,1.5c0.5,0.5,1.4,0,1.2-0.7c-1.5-5-0.6-11,1.5-15.8c2.4-5.5,6.9-8.8,12.5-10.9c1.5-0.5,3-1,4.5-1.4
		c0,0,0.1,0,0.1,0c0.3,0,0.4,0.4,0.1,0.6c-1.8,0.8-3.6,1.6-5.3,2.5c-8.4,4.4-12,14.5-8.9,14.5c0.3,0,0.6-0.1,0.9-0.2
		c4.8-2,10.6-2,15.9-3c1.9-0.3,3.7-0.8,5.4-1.5c6.8-2.8,11.6-8.4,14.5-15c2.1-5,3-10.8,4.6-16c0.2-0.7-0.3-1.2-0.8-1.2
		C79,32.1,78.9,32.2,78.7,32.3L78.7,32.3z M78.7,32.3"/>
</g>
</svg>
