<?xml version="1.0" encoding="utf-8"?>
<!-- Generator: Adobe Illustrator 18.0.0, SVG Export Plug-In . SVG Version: 6.00 Build 0)  -->
<!DOCTYPE svg PUBLIC "-//W3C//DTD SVG 1.1//EN" "http://www.w3.org/Graphics/SVG/1.1/DTD/svg11.dtd">
<svg version="1.1" id="Capa_1" xmlns="http://www.w3.org/2000/svg" xmlns:xlink="http://www.w3.org/1999/xlink" x="0px" y="0px"
	 viewBox="0 0 100 100" enable-background="new 0 0 100 100" xml:space="preserve">
<g>
	<path fill="#FFFFFF" d="M50.5,67.5c-0.2,0.5-0.7,0.8-1.2,0.8h0c-0.5,0-1-0.3-1.2-0.8l-9.5-23.4l-3.4,7c-0.2,0.4-0.7,0.7-1.1,0.7
		h-8.1c0.1,0.2,0.2,0.3,0.3,0.5l2.2,3.2c0.5,0.7,1.1,1.4,1.8,2.1c7.3,7.9,12.4,13.8,15.5,17.6c2.3,2.7,5.8,2.8,8.1,0
		c3-3.6,7.8-9.2,14.6-16.6l-14.5,0L50.5,67.5z"/>
	<path fill="#FFFFFF" d="M63.3,22.9c-3.8,0-7.3,1.5-9.9,3.9c-2.6,2.4-4.7,2.4-7.3,0c-2.6-2.4-6.1-3.8-9.9-3.8
		c-5.9,0-10.9,3.5-13.2,8.4c-1.5,3.2-1.3,9.1-0.3,12.5c0.5,1.6,1.1,3.5,2.1,5.4c0.2-0.1,0.4-0.1,0.6-0.1h8.1l4.3-8.8
		c0.2-0.4,0.7-0.7,1.2-0.7c0.5,0,0.9,0.3,1.1,0.8l9.3,23.1l2.6-6.9c0.2-0.5,0.7-0.8,1.2-0.8h16.3c0.3,0,0.6,0.1,0.9,0.4
		c0.4-0.5,0.8-1.2,1.3-1.8c1.2-1.6,3.6-5.4,4.8-8.8C78,41,78,37.5,78,37.5C78,29.4,71.4,22.9,63.3,22.9z"/>
</g>
</svg>
