<?xml version="1.0" encoding="utf-8"?>
<!-- Generator: Adobe Illustrator 18.0.0, SVG Export Plug-In . SVG Version: 6.00 Build 0)  -->
<!DOCTYPE svg PUBLIC "-//W3C//DTD SVG 1.1//EN" "http://www.w3.org/Graphics/SVG/1.1/DTD/svg11.dtd">
<svg version="1.1" id="Capa_1" xmlns="http://www.w3.org/2000/svg" xmlns:xlink="http://www.w3.org/1999/xlink" x="0px" y="0px"
	 viewBox="0 1190.6 100 100" enable-background="new 0 1190.6 100 100" xml:space="preserve">
<g>
	<path fill="#FFFFFF" d="M66.3,1214.4H33.6c-2.7,0-4.9,2.2-4.9,4.9v42.5c0,2.7,2.2,4.9,4.9,4.9h32.7c2.7,0,4.9-2.2,4.9-4.9v-42.5
		C71.2,1216.6,69,1214.4,66.3,1214.4z M50,1265.1c-0.9,0-1.6-0.7-1.6-1.6c0-0.9,0.7-1.6,1.6-1.6s1.6,0.7,1.6,1.6
		C51.6,1264.4,50.9,1265.1,50,1265.1z M64.7,1260.2H35.2v-39.2h29.4L64.7,1260.2L64.7,1260.2z"/>
</g>
</svg>
