<?xml version="1.0" encoding="utf-8"?>
<!-- Generator: Adobe Illustrator 18.0.0, SVG Export Plug-In . SVG Version: 6.00 Build 0)  -->
<!DOCTYPE svg PUBLIC "-//W3C//DTD SVG 1.1//EN" "http://www.w3.org/Graphics/SVG/1.1/DTD/svg11.dtd">
<svg version="1.1" id="Capa_1" xmlns="http://www.w3.org/2000/svg" xmlns:xlink="http://www.w3.org/1999/xlink" x="0px" y="0px"
	 viewBox="0 1190.6 100 100" enable-background="new 0 1190.6 100 100" xml:space="preserve">
<g>
	<path fill="#FFFFFF" d="M28.8,1266.3c-1.7,0-3-1.4-3-3v-45.5c0-1.7,1.4-3,3-3h6.1c1.7,0,3,1.4,3,3v45.4c0,1.7-1.4,3-3,3
		L28.8,1266.3L28.8,1266.3z"/>
	<path fill="#FFFFFF" d="M19.7,1260.2c-1.7,0-3-1.4-3-3v-33.3c0-1.7,1.4-3,3-3h3v39.4L19.7,1260.2L19.7,1260.2z"/>
	<path fill="#FFFFFF" d="M65.1,1266.3c-1.7,0-3-1.4-3-3v-45.5c0-1.7,1.4-3,3-3h6.1c1.7,0,3,1.4,3,3v45.4c0,1.7-1.4,3-3,3
		L65.1,1266.3L65.1,1266.3z"/>
	<path fill="#FFFFFF" d="M77.3,1260.2v-39.4h3c1.7,0,3,1.4,3,3v33.3c0,1.7-1.4,3-3,3L77.3,1260.2L77.3,1260.2z"/>
	<path fill="#FFFFFF" d="M86.4,1236h-6.1v9.1h6.1c1.7,0,3-1.4,3-3v-3C89.4,1237.4,88,1236,86.4,1236L86.4,1236z"/>
	<path fill="#FFFFFF" d="M19.7,1236h-6.1c-1.7,0-3,1.4-3,3v3c0,1.7,1.4,3,3,3h6.1V1236z"/>
	<rect x="34.8" y="1236" fill="#FFFFFF" width="30.3" height="9.1"/>
</g>
</svg>
