<?xml version="1.0" encoding="utf-8"?>
<!-- Generator: Adobe Illustrator 18.0.0, SVG Export Plug-In . SVG Version: 6.00 Build 0)  -->
<!DOCTYPE svg PUBLIC "-//W3C//DTD SVG 1.1//EN" "http://www.w3.org/Graphics/SVG/1.1/DTD/svg11.dtd">
<svg version="1.1" id="Capa_1" xmlns="http://www.w3.org/2000/svg" xmlns:xlink="http://www.w3.org/1999/xlink" x="0px" y="0px"
	 viewBox="0 0 841.9 1190.6" enable-background="new 0 0 841.9 1190.6" xml:space="preserve">
<g>
	<path fill="#FFFFFF" d="M175.1,604.8c-19,19-19,49.8,0,68.8c9.5,9.5,22,14.2,34.4,14.2c12.5,0,25.1-4.8,34.6-14.2l159.9-160
		l-68.8-68.8L175.1,604.8z M175.1,604.8"/>
	<path fill="#FFFFFF" d="M574.9,308.2l69.6-36l36.5-70.6l-33.9-33.9l-70.6,36.5l-36,69.6l-84.8,84.8l34.4,34.4L574.9,308.2z
		 M574.9,308.2"/>
	<path fill="#FFFFFF" d="M590.2,493.1l-6.5-0.6c-11.9,0-23.2,2.4-33.8,6.3l-200-200c4-10.6,6.3-21.8,6.3-33.7l-0.6-6.5
		c-3.5-50.7-45.2-90.9-96.7-90.9c-15.1,0-29.2,3.6-41.9,9.7l64.7,64.9c3.5,3.3,5.9,7.5,7.3,11.6c4.3,11.6,2.1,25.1-7.3,34.3
		c-6.3,6.3-14.6,9.5-22.8,9.5c-4,0-7.8-0.8-11.3-2.2c-4.3-1.6-8.4-3.8-11.7-7.3l-64.7-64.7c-6.2,12.7-9.8,26.8-9.8,41.7
		c0,51.7,40.3,93.4,90.9,96.9l6.7,0.6c11.9,0,23.2-2.5,33.6-6.3l200,199.9c-3.8,10.5-6.3,21.7-6.3,33.6l0.6,6.7
		c3.5,50.6,45.2,90.9,96.9,90.9c14.9,0,29-3.6,41.7-9.8l-64.7-64.7c-3.5-3.3-5.7-7.5-7.5-11.6c-4.1-11.6-1.9-25.1,7.5-34.3
		c6.3-6.3,14.6-9.5,23-9.5c3.8,0,7.6,0.8,11.3,2.2c4.1,1.6,8.2,3.8,11.6,7.3l64.9,64.7c6-12.7,9.7-26.8,9.7-41.9
		C681,538.3,640.9,496.6,590.2,493.1L590.2,493.1z"/>
</g>
</svg>
