<?xml version="1.0" encoding="utf-8"?>
<!-- Generator: Adobe Illustrator 18.0.0, SVG Export Plug-In . SVG Version: 6.00 Build 0)  -->
<!DOCTYPE svg PUBLIC "-//W3C//DTD SVG 1.1//EN" "http://www.w3.org/Graphics/SVG/1.1/DTD/svg11.dtd">
<svg version="1.1" id="Capa_1" xmlns="http://www.w3.org/2000/svg" xmlns:xlink="http://www.w3.org/1999/xlink" x="0px" y="0px"
	 viewBox="0 0 100 100" enable-background="new 0 0 100 100" xml:space="preserve">
<path fill="#FFFFFF" d="M54.4,36.6l6.7-9.2l-4-5H42.9l-4,5l6.7,9.2c-9.3,2-16.3,10.3-16.3,20.2c0,11.4,9.3,20.7,20.7,20.7
	c11.4,0,20.7-9.3,20.7-20.7C70.7,47,63.7,38.7,54.4,36.6L54.4,36.6z M50,70.8c-7.7,0-13.9-6.2-13.9-13.9C36.1,49.2,42.3,43,50,43
	c7.7,0,13.9,6.2,13.9,13.9C63.9,64.5,57.6,70.8,50,70.8L50,70.8z M50,70.8"/>
</svg>
