<?xml version="1.0" encoding="utf-8"?>
<!-- Generator: Adobe Illustrator 18.0.0, SVG Export Plug-In . SVG Version: 6.00 Build 0)  -->
<!DOCTYPE svg PUBLIC "-//W3C//DTD SVG 1.1//EN" "http://www.w3.org/Graphics/SVG/1.1/DTD/svg11.dtd">
<svg version="1.1" id="Capa_1" xmlns="http://www.w3.org/2000/svg" xmlns:xlink="http://www.w3.org/1999/xlink" x="0px" y="0px"
	 viewBox="0 0 100 100" enable-background="new 0 0 100 100" xml:space="preserve">
<path fill="#FFFFFF" d="M20,45.5c0,1,0.3,1.4,0.6,1.7c0.1,0.1,0.2,0.2,0.2,0.3c0.1,0.2,0.2,0.5,0.3,0.9c1.2,7.4,1.5,8.4,4.6,10.1
	c1.5,0.8,4.5,1.3,7.6,1.3c2.4,0,5.8-0.3,8.7-1.8c4.2-2.2,5.7-9.7,5.8-10.1c0,0,0.1-0.9,2-0.9h0.1c1.8,0,1.9,0.9,1.9,1
	c0.1,0.3,1.6,7.8,5.8,10c2.9,1.5,6.3,1.8,8.7,1.8c3.1,0,6.1-0.5,7.6-1.3c3.1-1.6,3.4-2.7,4.6-10.1c0.1-0.3,0.2-0.6,0.3-0.9
	c0.1-0.1,0.1-0.2,0.2-0.3c0.3-0.3,0.7-0.7,0.6-1.7c0-0.2,0-0.5,0-0.8c0-0.5,0-1.1,0-1.4c-0.1-1.5-1.4-2.1-2.1-2.2
	c-4.3-0.9-9.4-1.1-14.8-0.7l-0.3,0c-3.3,0.2-5.1,0.4-7.3,1.3c-0.5,0.2-1,0.5-1.5,0.7c-0.8,0.4-2,0.9-2.6,1c-0.3,0.1-0.5,0.1-0.7,0.2
	c-0.3,0.1-1,0.1-1.3,0c-0.2,0-0.5-0.1-0.7-0.2c-0.6-0.1-1.8-0.6-2.6-1c-0.5-0.2-1-0.5-1.5-0.7c-2.2-1-4-1.1-7.3-1.3l-0.3,0
	c-5.4-0.4-10.6-0.1-14.8,0.7c-0.7,0.1-2,0.7-2.1,2.2c0,0.3,0,0.9,0,1.4C20,45.1,20,45.4,20,45.5L20,45.5z M21.3,43.7"/>
</svg>
