<?xml version="1.0" encoding="utf-8"?>
<!-- Generator: Adobe Illustrator 18.0.0, SVG Export Plug-In . SVG Version: 6.00 Build 0)  -->
<!DOCTYPE svg PUBLIC "-//W3C//DTD SVG 1.1//EN" "http://www.w3.org/Graphics/SVG/1.1/DTD/svg11.dtd">
<svg version="1.1" id="Capa_1" xmlns="http://www.w3.org/2000/svg" xmlns:xlink="http://www.w3.org/1999/xlink" x="0px" y="0px"
	 viewBox="0 0 100 100" enable-background="new 0 0 100 100" xml:space="preserve">
<g>
	<path fill="#FFFFFF" d="M76.3,64.1c-1.7,1.3-3.8,2.4-6.2,3.3c-1.3-4.9-2.8-12.7-2-19.1c0-5.1,3.4-5.1,3.4-5.1l5.6,2.4
		c0,0,5.7,2.4,4.9-4.5c-2-4.8-5.8-11.3-5.8-11.3s-1.4-1.6-1-5.5c0.4-3.9-4.1,3.2-4.1,3.2s-4.2,0.7-5.1,2.1c-0.9,1.4-9.4,9.6-9.4,9.6
		s-2.1,2-4.8,1.9c-2.7-0.1-5.1-1.4-7.8-2.2c-2.6-0.8-5.4-0.7-5.4-0.7s-1.6-5.2-8.3-6c-6.7-0.8-6.8,8.2-6.8,8.2s1,6.2-5.6,7.7
		c0,0,7.3,6.3,11.9-3.6c4.6-9.9,5.5-2.6,5.5-2.6s-1.5,3.2-1.5,8.2c0,5,1.5,7,1.5,7l-3.4,10c-2.1-0.9-3.9-1.9-5.5-3
		c-1.4-1-3.3-0.7-4.3,0.6c-1,1.3-0.7,3.3,0.6,4.3c6.5,4.8,17.2,7.7,28.6,7.7c11.4,0,22.1-2.9,28.6-7.7c1.3-1,1.6-2.9,0.6-4.3
		C79.6,63.4,77.7,63.1,76.3,64.1L76.3,64.1z M37,68.9c2.2-5,6.8-12.4,14.9-12.4c7.8,0,11.7,7.2,13.5,12.5c-4.2,1.1-9,1.7-14,1.7
		C46.2,70.6,41.3,70,37,68.9L37,68.9z M37,68.9"/>
</g>
</svg>
