<?xml version="1.0" encoding="utf-8"?>
<!-- Generator: Adobe Illustrator 18.0.0, SVG Export Plug-In . SVG Version: 6.00 Build 0)  -->
<!DOCTYPE svg PUBLIC "-//W3C//DTD SVG 1.1//EN" "http://www.w3.org/Graphics/SVG/1.1/DTD/svg11.dtd">
<svg version="1.1" id="Layer_1" xmlns="http://www.w3.org/2000/svg" xmlns:xlink="http://www.w3.org/1999/xlink" x="0px" y="0px"  width="90px" height="90px" 
	 viewBox="0 0 90 90" enable-background="new 0 0 90 90" xml:space="preserve">
<g>
	<path fill="#FFFFFF" d="M35,60.2l-2.5-4l-5.4,0.9l7-12.4H20.5v32.7h23.3V44.7L35,60.2z"/>
	<path fill="#FFFFFF" d="M73.4,29H58c0.9-0.5,1.7-0.9,2.5-1.4c2.8-2,4.1-4.5,4.1-6.9c0-2.1-0.9-5-2.4-6.1c-1.4-1.1-3.3-2-5.3-2
		c-2.1,0-4,0.8-5.8,1.9c-2.5,1.7-4.6,5.4-5.9,8.3c0,0.1-0.1,0.3-0.3,0.4c-0.5-1-1.1-3.3-1.9-4.1c-1.1-1.7-2.6-3.3-4.3-4.3
		c-1.7-1.1-3.6-1.9-5.8-1.9c-2.1,0-4,0.9-5.5,2.3c-1.4,1.3-2.5,4.5-2.5,6.5c0,1.3,0.4,2.6,1.1,3.8c0.9,1.6,2.5,2.9,4.6,3.9h-14v12.9
		h26.8V29.4h3.3v12.9h26.8V29z M31.8,25c-1-0.6-1.7-1.3-2.1-2c-0.4-0.6-0.5-1.7-0.5-2.3c0-0.9,0.4-2.4,1.1-3.1
		c0.8-0.8,1.9-1.1,2.8-1.1l0,0c1.1,0,2.4,0.4,3.5,1.1c1.7,1.1,3.4,4.3,4.6,6.7c0.6,1.1,1,2.5,1.4,3.6C37.3,27.3,33.8,26.1,31.8,25
		L31.8,25z M50.1,22.1c0.9-1.4,2.1-3.6,3.3-4.5c1.1-0.8,2.4-1.1,3.5-1.1l0,0c1,0,2,0.4,2.6,0.9c0.6,0.5,1,1.7,1,2.4
		c0,0.9-0.5,2.9-2.5,4.5c-2,1.4-5.4,2.9-10.6,3.9C47.8,26.1,48.8,23.9,50.1,22.1L50.1,22.1z"/>
	<path fill="#FFFFFF" d="M63,57l-5.4-0.9L55,60.2l-8.6-15.4v32.5h23.2V44.6H56L63,57z"/>
</g>
</svg>
