<?xml version="1.0" encoding="utf-8"?>
<!-- Generator: Adobe Illustrator 17.1.0, SVG Export Plug-In . SVG Version: 6.00 Build 0)  -->
<!DOCTYPE svg PUBLIC "-//W3C//DTD SVG 1.1//EN" "http://www.w3.org/Graphics/SVG/1.1/DTD/svg11.dtd">
<svg version="1.1" id="Layer_1" xmlns="http://www.w3.org/2000/svg" xmlns:xlink="http://www.w3.org/1999/xlink" x="0px" y="0px"
	 viewBox="0 0 90 90" enable-background="new 0 0 90 90" xml:space="preserve">
<g>
	<path fill="#FFFFFF" d="M30.7,21.8c6.2,0,10.3,4.8,10.3,13.4c0,9.4-4.9,14.1-10.7,14.1c-5.7,0-10.4-4.5-10.5-13.5
		C19.8,26.8,24.6,21.8,30.7,21.8L30.7,21.8z M30.3,25.5c-3.7,0-5.8,4.5-5.8,10.1c-0.1,5.7,2.1,10,5.9,10c4,0,5.8-4.2,5.8-10.1
		C36.2,30,34.6,25.5,30.3,25.5L30.3,25.5z M29.8,68.3l26.4-46.5h3.9L33.6,68.3H29.8z M59.9,40.4c6.2,0,10.3,4.8,10.3,13.3
		c0,9.5-4.9,14.2-10.7,14.2c-5.7,0-10.4-4.6-10.5-13.5C49,45.3,53.9,40.4,59.9,40.4L59.9,40.4z M59.6,44c-3.7,0-5.8,4.4-5.8,10.1
		c-0.1,5.7,2.1,10.1,5.9,10.1c4,0,5.8-4.3,5.8-10.3C65.5,48.5,63.9,44,59.6,44L59.6,44z"/>
</g>
</svg>
