<?xml version="1.0" encoding="utf-8"?>
<!-- Generator: Adobe Illustrator 18.0.0, SVG Export Plug-In . SVG Version: 6.00 Build 0)  -->
<!DOCTYPE svg PUBLIC "-//W3C//DTD SVG 1.1//EN" "http://www.w3.org/Graphics/SVG/1.1/DTD/svg11.dtd">
<svg version="1.1" id="Layer_1" xmlns="http://www.w3.org/2000/svg" xmlns:xlink="http://www.w3.org/1999/xlink" x="0px" y="0px" width="100px" height="100px"
	 viewBox="0 0 100 100" enable-background="new 0 0 100 100" xml:space="preserve">
<g>
	<path fill="#FFFFFF" d="M28.5,14.9c9.3,0,15.5,7.2,15.5,20.2c0,14.2-7.4,21.2-16.1,21.2c-8.6,0-15.7-6.8-15.8-20.3
		C12,22.5,19.3,14.9,28.5,14.9L28.5,14.9z M27.9,20.5c-5.6,0-8.7,6.8-8.7,15.2c-0.2,8.6,3.2,15.1,8.9,15.1c6,0,8.7-6.3,8.7-15.2
		C36.7,27.4,34.3,20.5,27.9,20.5L27.9,20.5z M27.1,85l39.8-70h5.9L32.9,85H27.1z M72.4,43c9.3,0,15.5,7.2,15.5,20
		c0,14.3-7.4,21.4-16.1,21.4c-8.6,0-15.7-6.9-15.8-20.3C56,50.4,63.4,43,72.4,43L72.4,43z M72,48.5c-5.6,0-8.7,6.6-8.7,15.2
		c-0.2,8.6,3.2,15.2,8.9,15.2c6,0,8.7-6.5,8.7-15.5C80.9,55.1,78.5,48.5,72,48.5L72,48.5z"/>
</g>
</svg>
