<?xml version="1.0" encoding="utf-8"?>
<!-- Generator: Adobe Illustrator 18.0.0, SVG Export Plug-In . SVG Version: 6.00 Build 0)  -->
<!DOCTYPE svg PUBLIC "-//W3C//DTD SVG 1.1//EN" "http://www.w3.org/Graphics/SVG/1.1/DTD/svg11.dtd">
<svg version="1.1" id="Layer_1" xmlns="http://www.w3.org/2000/svg" xmlns:xlink="http://www.w3.org/1999/xlink" x="0px" y="0px"
	 viewBox="0 0 25 50" enable-background="new 0 0 25 50" xml:space="preserve">
<g>
	<path fill="#E71D24" d="M12.3,2.8c-5.5,0-10,4.5-10,10c0,5.5,4.5,10,10,10c5.5,0,10-4.5,10-10C22.3,7.3,17.9,2.8,12.3,2.8z
		 M14.4,19.1L10.3,15l-2.2-2.2l2.2-2.2l4.1-4.1l2.2,2.2l-4.1,4.1l4.1,4.1L14.4,19.1z"/>
</g>
<g>
	<path fill="#CCCCCC" d="M12.3,27.1c-5.5,0-10,4.5-10,10c0,5.5,4.5,10,10,10c5.5,0,10-4.5,10-10C22.3,31.5,17.9,27.1,12.3,27.1z
		 M14.4,43.4l-4.1-4.1l-2.2-2.2l2.2-2.2l4.1-4.1l2.2,2.2l-4.1,4.1l4.1,4.1L14.4,43.4z"/>
</g>
</svg>
