<?xml version="1.0" encoding="utf-8"?>
<!-- Generator: Adobe Illustrator 17.0.1, SVG Export Plug-In . SVG Version: 6.00 Build 0)  -->
<!DOCTYPE svg PUBLIC "-//W3C//DTD SVG 1.1//EN" "http://www.w3.org/Graphics/SVG/1.1/DTD/svg11.dtd">
<svg version="1.1" id="Capa_1" xmlns="http://www.w3.org/2000/svg" xmlns:xlink="http://www.w3.org/1999/xlink" x="0px" y="0px"
	 width="85.039px" height="85.039px" viewBox="0 0 85.039 85.039" enable-background="new 0 0 85.039 85.039" xml:space="preserve">
<g>
	<defs>
		<rect id="SVGID_1_" x="0" y="0" width="78.315" height="78.315"/>
	</defs>
	<clipPath id="SVGID_2_">
		<use xlink:href="#SVGID_1_"  overflow="visible"/>
	</clipPath>
	
		<linearGradient id="SVGID_3_" gradientUnits="userSpaceOnUse" x1="4.4209" y1="52.8546" x2="101.4123" y2="52.8546" gradientTransform="matrix(1.0704 0.0704 0.0704 1.0704 -32.1199 -32.12)">
		<stop  offset="0.4184" style="stop-color:#C23113"/>
		<stop  offset="0.5245" style="stop-color:#C7512D"/>
		<stop  offset="0.7517" style="stop-color:#D38163"/>
		<stop  offset="0.7602" style="stop-color:#D48365"/>
	</linearGradient>
	<polygon clip-path="url(#SVGID_2_)" fill="url(#SVGID_3_)" points="78.009,-1.038 -0.976,77.947 -21.518,57.405 57.467,-21.58 	"/>
	<g clip-path="url(#SVGID_2_)">
		<path fill="#FFFFFF" d="M12.031,36.104l1.913-1.913l3.44,3.44l3.527-3.527l-3.44-3.44l1.913-1.913l8.693,8.693l-1.913,1.913
			l-3.49-3.49l-3.527,3.527l3.49,3.49l-1.913,1.913L12.031,36.104z"/>
		<path fill="#FFFFFF" d="M25.458,31.42l-0.025-0.025c-2.471-2.471-2.546-6.445,0.137-9.128c2.682-2.682,6.607-2.607,9.079-0.136
			l0.024,0.024c2.471,2.471,2.546,6.446-0.136,9.128S27.929,33.891,25.458,31.42z M32.698,24.18l-0.025-0.025
			c-1.49-1.49-3.825-1.639-5.365-0.099s-1.391,3.825,0.1,5.315l0.024,0.024c1.491,1.491,3.825,1.64,5.365,0.1
			C34.337,27.956,34.189,25.67,32.698,24.18z"/>
		<path fill="#FFFFFF" d="M38.996,19.67l-8.605-1.925l2.235-2.235l5.563,1.416l-1.378-5.601l2.173-2.173l1.887,8.569l3.465,3.465
			l-1.913,1.913L38.996,19.67z"/>
	</g>
</g>
</svg>
