<?xml version="1.0" encoding="utf-8"?>
<!-- Generator: Adobe Illustrator 18.0.0, SVG Export Plug-In . SVG Version: 6.00 Build 0)  -->
<!DOCTYPE svg PUBLIC "-//W3C//DTD SVG 1.1//EN" "http://www.w3.org/Graphics/SVG/1.1/DTD/svg11.dtd">
<svg version="1.1" id="Layer_1" xmlns="http://www.w3.org/2000/svg" xmlns:xlink="http://www.w3.org/1999/xlink" x="0px" y="0px"
	 viewBox="-306 884.6 612 612" enable-background="new -306 884.6 612 612" xml:space="preserve">
<g>
	<path fill="#FFFFFF" d="M-55,1274.8l-13.9-22.5l-29.3,5.2l38.6-68.4h-75.3v179.9H-6.5V1189L-55,1274.8z"/>
	<path fill="#FFFFFF" d="M156,1103.1H70.9c5-2.5,9.5-5.2,13.5-8.1c15.2-10.8,23.2-24.6,23.2-38.3c0-11.2-5.3-27.3-13.1-33.9
		C87,1016,76.7,1012,65.7,1012c-11.6,0-22.5,4.1-31.8,10.2c-14,9.4-24.8,29.6-32.7,45.1c-0.4,0.8-0.8,1.5-1.2,2.3
		c-2.8-6-6.2-17.9-9.9-23.3c-6.6-9.5-14.5-17.9-23.8-24c-9.3-6.2-20.2-10.2-31.8-10.2s-22.2,5-30.2,12.4
		c-7.9,7.4-13.5,24.1-13.5,36.2c-0.1,6.9,1.9,14.1,6.2,20.9c5.2,8.3,13.6,15.6,25.2,21.5h-78.5l0.2,71.6H-8.9v-71.6H9.1v71.6h147.3
		L156,1103.1z M-72.9,1080.8c-5.8-3.7-9.5-7.5-11.6-10.8c-2.1-3.3-2.7-9.2-2.7-12.2c-0.1-4.8,2.4-13.3,6.6-17.3
		c4.1-4.1,9.8-6.4,15-6.4h0.2c6.6,0,13.1,2.3,19.5,6.6c9.7,6.4,18.8,23.8,25.2,36.6c3.3,6.6,5.8,13.3,7.6,20
		C-42.7,1094.3-61.7,1087.7-72.9,1080.8L-72.9,1080.8z M27.9,1065.2c5.3-7.6,11.6-20.2,18.1-24.5c6.5-4.2,13.1-6.5,19.5-6.6h0.1
		c5.4,0,10.8,2.1,14.3,5.3c3.5,3.2,5.4,9.1,5.4,13.2c-0.1,5-2.7,16.2-14,24.5c-10.8,7.9-29.7,16-58.6,21.6
		C15.5,1087.3,20.9,1075.2,27.9,1065.2L27.9,1065.2z"/>
	<path fill="#FFFFFF" d="M98.4,1257.1l-29.3-5l-14,22.9l-47.8-84.8v178.8h127.6v-179.9H59.7L98.4,1257.1z"/>
</g>
</svg>
