<?xml version="1.0" encoding="utf-8"?>
<!-- Generator: Adobe Illustrator 18.0.0, SVG Export Plug-In . SVG Version: 6.00 Build 0)  -->
<!DOCTYPE svg PUBLIC "-//W3C//DTD SVG 1.1//EN" "http://www.w3.org/Graphics/SVG/1.1/DTD/svg11.dtd">
<svg version="1.1" id="Layer_1" xmlns="http://www.w3.org/2000/svg" xmlns:xlink="http://www.w3.org/1999/xlink" x="0px" y="0px"
	 viewBox="0 0 841.9 1190.6" enable-background="new 0 0 841.9 1190.6" xml:space="preserve">
<g>
	<path fill="#FFFFFF" d="M346.7,520.4l-19.8-32.1l-41.7,7.5l54.9-97.4h-107v256h182.5v-256L346.7,520.4z"/>
	<path fill="#FFFFFF" d="M647,276.2H525.8c7-3.6,13.5-7.4,19.1-11.5c21.6-15.4,33-35,33-54.4c0-16-7.6-38.8-18.5-48.2
		c-10.9-9.6-25.5-15.3-41-15.3c-16.6,0-32,5.7-45.2,14.6c-19.9,13.3-35.4,42.1-46.6,64c-0.5,1.1-1.1,2.1-1.7,3.2
		c-4-8.6-8.8-25.4-14.2-33.2c-9.4-13.4-20.7-25.4-33.9-34.1c-13.2-8.9-28.6-14.6-45.2-14.6s-31.6,7-43,17.7
		c-11.3,10.6-19.2,34.4-19.2,51.4c-0.1,9.9,2.8,20.2,8.8,29.8c7.5,11.8,19.4,22.2,35.9,30.6H202.6l0.3,101.9h209.5v-102h25.5v101.9
		h209.5L647,276.2z M321.4,244.4c-8.4-5.3-13.5-10.7-16.6-15.4c-2.9-4.8-3.9-13.1-3.9-17.3c-0.1-6.9,3.4-18.9,9.4-24.5
		c5.9-5.7,14-9.1,21.3-9.1h0.2c9.3,0,18.5,3.2,27.8,9.3c13.8,9.1,26.8,33.9,35.9,52.1c4.8,9.3,8.4,19,10.8,28.5
		C364.3,263.6,337.1,254.3,321.4,244.4L321.4,244.4z M464.7,222.3c7.6-10.8,16.6-28.7,25.7-34.9c9.2-6,18.5-9.2,27.8-9.3h0.1
		c7.7,0,15.3,3.1,20.3,7.6c5.1,4.6,7.7,12.9,7.7,18.8c-0.1,7-3.7,23-19.9,34.9c-15.4,11.2-42.2,22.7-83.4,30.7
		C447,253.8,454.7,236.6,464.7,222.3L464.7,222.3z"/>
	<path fill="#FFFFFF" d="M564.9,495.4l-41.7-7l-19.8,32.5l-67.9-120.8v254.4H617v-256H510L564.9,495.4z"/>
</g>
</svg>
