<?xml version="1.0" encoding="utf-8"?>
<!-- Generator: Adobe Illustrator 18.0.0, SVG Export Plug-In . SVG Version: 6.00 Build 0)  -->
<!DOCTYPE svg PUBLIC "-//W3C//DTD SVG 1.1//EN" "http://www.w3.org/Graphics/SVG/1.1/DTD/svg11.dtd">
<svg version="1.1" id="Layer_1" xmlns="http://www.w3.org/2000/svg" xmlns:xlink="http://www.w3.org/1999/xlink" x="0px" y="0px"
	 viewBox="0 1190.6 612 612" enable-background="new 0 1190.6 612 612" xml:space="preserve">
<g enable-background="new    ">
	<path fill="#FFFFFF" d="M279.3,1430.6c0,63.6-33.4,95.2-72.4,95.2c-37.6,0-70.1-30.2-70.6-91c0-60.4,33-94.3,72.9-94.3
		C251.4,1340.5,279.3,1373,279.3,1430.6z M168.8,1433.4c-0.9,38.5,13.5,67.8,39,67.8c26.9,0,39-28.8,39-68.7
		c0-36.7-10.7-67.3-39-67.3C182.3,1365.1,168.8,1395.3,168.8,1433.4z M204.1,1652.6l177.4-312h26l-177.4,312H204.1z M475.7,1555.5
		c0,63.6-33.4,95.2-72,95.2c-37.6,0-70.1-30.2-70.6-90.5c0-60.8,33-94.7,72.9-94.7C448.3,1465.4,475.7,1497.9,475.7,1555.5z
		 M365.2,1558.3c-0.5,38.5,14.4,67.8,39.5,67.8c26.9,0,39-28.8,39-68.7c0-36.7-10.7-67.3-39-67.3
		C379.1,1490,365.2,1520.2,365.2,1558.3z"/>
</g>
</svg>
