<?xml version="1.0" encoding="utf-8"?>
<!-- Generator: Adobe Illustrator 17.1.0, SVG Export Plug-In . SVG Version: 6.00 Build 0)  -->
<!DOCTYPE svg PUBLIC "-//W3C//DTD SVG 1.1//EN" "http://www.w3.org/Graphics/SVG/1.1/DTD/svg11.dtd">
<svg version="1.1" id="Layer_1" xmlns="http://www.w3.org/2000/svg" xmlns:xlink="http://www.w3.org/1999/xlink" x="0px" y="0px"
	 viewBox="0 90 612 612" enable-background="new 0 90 612 612" xml:space="preserve">
<g>
	<rect x="212.8" y="269.5" fill="#FFFFFF" width="286.3" height="58.5"/>
	<rect x="212.8" y="363.4" fill="#FFFFFF" width="286.3" height="58.5"/>
	<rect x="212.8" y="463.3" fill="#FFFFFF" width="286.3" height="58.5"/>
	<path fill="#FFFFFF" d="M142.8,269.5c-16.3,0-29.9,13.6-29.9,29.9c0,16.3,13.6,29.9,29.9,29.9s29.9-13.6,29.9-29.9
		S159.1,269.5,142.8,269.5z"/>
	<path fill="#FFFFFF" d="M142.8,362.7c-16.3,0-29.9,13.6-29.9,29.9c0,16.3,13.6,29.9,29.9,29.9s29.9-13.6,29.9-29.9
		C172.7,375.6,159.1,362.7,142.8,362.7z"/>
	<path fill="#FFFFFF" d="M142.8,462.6c-16.3,0-29.9,13.6-29.9,29.9s13.6,29.9,29.9,29.9s29.9-13.6,29.9-29.9
		S159.1,462.6,142.8,462.6z"/>
</g>
</svg>
