<?xml version="1.0" encoding="utf-8"?>
<!-- Generator: Adobe Illustrator 16.0.0, SVG Export Plug-In . SVG Version: 6.00 Build 0)  -->
<!DOCTYPE svg PUBLIC "-//W3C//DTD SVG 1.1//EN" "http://www.w3.org/Graphics/SVG/1.1/DTD/svg11.dtd">
<svg version="1.1" id="Capa_1" xmlns="http://www.w3.org/2000/svg" xmlns:xlink="http://www.w3.org/1999/xlink" x="0px" y="0px"
	 width="595.279px" height="841.891px" viewBox="0 0 595.279 841.891" enable-background="new 0 0 595.279 841.891"
	 xml:space="preserve">
<path fill="#FFFFFF" d="M172.164,476.892V303.371c0,0-59.042-12.646-59.042-66.143s23.053-71.005,59.042-68.087
	s46.688,14.59,46.688,14.59s17.509-58.75,65.17-58.75s83.65,56.805,83.65,56.805s18.48-15.563,50.579-13.618
	s63.905,27.235,63.905,69.06s-44.451,65.17-60.987,64.197c0,31.124,0,175.466,0,175.466h-51.552v-81.121v-88.509h-23.345v169.63
	h-39.88v-169.63h-20.426v169.63h-40.853v-169.63h-23.345v169.63H172.164z"/>
</svg>
