<?xml version="1.0" encoding="utf-8"?>
<!-- Generator: Adobe Illustrator 16.0.0, SVG Export Plug-In . SVG Version: 6.00 Build 0)  -->
<!DOCTYPE svg PUBLIC "-//W3C//DTD SVG 1.1//EN" "http://www.w3.org/Graphics/SVG/1.1/DTD/svg11.dtd">
<svg version="1.1" id="Capa_1" xmlns="http://www.w3.org/2000/svg" xmlns:xlink="http://www.w3.org/1999/xlink" x="0px" y="0px"
	 width="374.481px" height="336.062px" viewBox="110.4 271.451 374.481 336.062"
	 enable-background="new 110.4 271.451 374.481 336.062" xml:space="preserve">
<g>
	<path fill="#FFFFFF" d="M341.993,351.333c-79.131,0-78.652,15.662-78.652,15.662v43.499c14.704-1.3,24.827-3.557,31.324-5.54
		c9.712-2.941,13.61-5.951,14.294-6.566c1.436-1.778,3.488-2.667,5.676-2.667c0.89,0,1.848,0.137,2.736,0.479
		c3.146,1.094,5.061,4.309,5.061,7.592v62.855c6.156-3.078,12.722-4.582,19.835-4.651c1.915,0.069,3.898,0.206,6.771,0.615
		c2.531,0.479,4.787,0.958,7.182,1.778c4.651,1.643,9.165,3.898,13.2,7.181c7.25,5.745,13.542,14.636,14.842,25.101
		c0.204,1.71-1.095,2.736-2.805,2.256c-8.07-2.119-14.226-2.529-20.244-3.008l-9.712-0.411l-9.781-0.137
		c-5.607,0.069-12.311,0.069-18.876,0.548c-0.068,0-0.205,0-0.274,0c0,17.371-3.897,33.718-10.736,47.875
		c9.301,4.514,19.561,7.045,30.229,7.045c43.43,0,78.653-41.174,78.653-91.92v-91.992
		C420.716,366.927,421.195,351.333,341.993,351.333L341.993,351.333z M394.11,436.689c-9.438,7.251-23.049,6.566-31.734-2.052
		c-8.686-8.687-9.37-22.297-2.052-31.735c1.026-1.368,3.078-1.368,4.31-0.137l29.614,29.615
		C395.478,433.612,395.478,435.596,394.11,436.689L394.11,436.689z"/>
	<path fill="#FFFFFF" d="M314.704,403.792c0,0-14.293,15.662-78.652,15.662c-64.29,0-78.652-15.662-78.652-15.662v91.921
		c0,50.748,35.223,91.922,78.652,91.922c43.43,0,78.652-41.174,78.652-91.922V403.792L314.704,403.792z M182.295,486.548
		c-1.709,0-3.146-1.436-2.941-3.145c1.504-11.833,11.627-20.996,23.938-20.996c12.243,0,22.365,9.163,23.869,20.996
		c0.206,1.709-1.231,3.145-2.941,3.145H182.295z M278.251,517.599c-1.299,10.465-7.592,19.287-14.842,25.032
		c-8.275,6.36-17.509,9.507-27.768,9.507c-1.915-0.067-3.898-0.205-6.771-0.547c-2.53-0.479-4.788-0.89-7.181-1.778
		c-4.651-1.642-9.165-3.898-13.132-7.182c-7.25-5.745-13.542-14.636-14.842-25.101c-0.205-1.709,1.095-2.735,2.805-2.257
		c8.07,2.12,14.226,2.531,20.313,3.01l9.712,0.411l9.78,0.137c5.608,0,12.311-0.069,18.876-0.548
		c6.019-0.411,12.243-0.89,20.245-3.01C277.156,514.932,278.456,515.89,278.251,517.599L278.251,517.599z M289.741,486.548h-41.925
		c-1.71,0-3.146-1.436-2.941-3.145c1.504-11.833,11.626-20.996,23.869-20.996s22.365,9.163,23.938,20.996
		C292.956,485.112,291.52,486.548,289.741,486.548L289.741,486.548z"/>
</g>
</svg>
