<?xml version="1.0" encoding="utf-8"?>
<!-- Generator: Adobe Illustrator 18.0.0, SVG Export Plug-In . SVG Version: 6.00 Build 0)  -->
<!DOCTYPE svg PUBLIC "-//W3C//DTD SVG 1.1//EN" "http://www.w3.org/Graphics/SVG/1.1/DTD/svg11.dtd">
<svg version="1.1" id="Capa_1" xmlns="http://www.w3.org/2000/svg" xmlns:xlink="http://www.w3.org/1999/xlink" x="0px" y="0px"
	 viewBox="0 0 612 792" enable-background="new 0 0 612 792" xml:space="preserve">
<g>
	<path fill="#FFFFFF" d="M382.4,222.8c-115.7,0-115,22.9-115,22.9v63.6c21.5-1.9,36.3-5.2,45.8-8.1c14.2-4.3,19.9-8.7,20.9-9.6
		c2.1-2.6,5.1-3.9,8.3-3.9c1.3,0,2.7,0.2,4,0.7c4.6,1.6,7.4,6.3,7.4,11.1v91.9c9-4.5,18.6-6.7,29-6.8c2.8,0.1,5.7,0.3,9.9,0.9
		c3.7,0.7,7,1.4,10.5,2.6c6.8,2.4,13.4,5.7,19.3,10.5c10.6,8.4,19.8,21.4,21.7,36.7c0.3,2.5-1.6,4-4.1,3.3
		c-11.8-3.1-20.8-3.7-29.6-4.4l-14.2-0.6l-14.3-0.2c-8.2,0.1-18,0.1-27.6,0.8c-0.1,0-0.3,0-0.4,0c0,25.4-5.7,49.3-15.7,70
		c13.6,6.6,28.6,10.3,44.2,10.3c63.5,0,115-60.2,115-134.4V245.6C497.5,245.6,498.2,222.8,382.4,222.8L382.4,222.8z M458.6,347.6
		c-13.8,10.6-33.7,9.6-46.4-3c-12.7-12.7-13.7-32.6-3-46.4c1.5-2,4.5-2,6.3-0.2l43.3,43.3C460.6,343.1,460.6,346,458.6,347.6
		L458.6,347.6z M458.6,347.6"/>
	<path fill="#FFFFFF" d="M342.5,299.5c0,0-20.9,22.9-115,22.9c-94,0-115-22.9-115-22.9v134.4c0,74.2,51.5,134.4,115,134.4
		c63.5,0,115-60.2,115-134.4L342.5,299.5L342.5,299.5z M148.9,420.5c-2.5,0-4.6-2.1-4.3-4.6c2.2-17.3,17-30.7,35-30.7
		c17.9,0,32.7,13.4,34.9,30.7c0.3,2.5-1.8,4.6-4.3,4.6H148.9z M289.2,465.9c-1.9,15.3-11.1,28.2-21.7,36.6
		c-12.1,9.3-25.6,13.9-40.6,13.9c-2.8-0.1-5.7-0.3-9.9-0.8c-3.7-0.7-7-1.3-10.5-2.6c-6.8-2.4-13.4-5.7-19.2-10.5
		c-10.6-8.4-19.8-21.4-21.7-36.7c-0.3-2.5,1.6-4,4.1-3.3c11.8,3.1,20.8,3.7,29.7,4.4l14.2,0.6l14.3,0.2c8.2,0,18-0.1,27.6-0.8
		c8.8-0.6,17.9-1.3,29.6-4.4C287.6,462,289.5,463.4,289.2,465.9L289.2,465.9z M306,420.5h-61.3c-2.5,0-4.6-2.1-4.3-4.6
		c2.2-17.3,17-30.7,34.9-30.7s32.7,13.4,35,30.7C310.7,418.4,308.6,420.5,306,420.5L306,420.5z M306,420.5"/>
</g>
</svg>
