<?xml version="1.0" encoding="utf-8"?>
<!-- Generator: Adobe Illustrator 16.0.0, SVG Export Plug-In . SVG Version: 6.00 Build 0)  -->
<!DOCTYPE svg PUBLIC "-//W3C//DTD SVG 1.1//EN" "http://www.w3.org/Graphics/SVG/1.1/DTD/svg11.dtd">
<svg version="1.1" id="Layer_1" xmlns="http://www.w3.org/2000/svg" xmlns:xlink="http://www.w3.org/1999/xlink" x="0px" y="0px"
	 width="25px" height="50px" viewBox="0 0 25 50" enable-background="new 0 0 25 50" xml:space="preserve">
<g>
	<path fill="#FFFFFF" d="M12.343,2.785c-5.521,0-9.999,4.477-9.999,9.999c0,5.525,4.478,10.001,9.999,10.001
		c5.524,0,10.001-4.476,10.001-10.001C22.344,7.262,17.867,2.785,12.343,2.785z M14.38,19.082l-4.091-4.092l-2.211-2.21l2.211-2.21
		l4.08-4.08L16.58,8.7l-4.061,4.1l4.092,4.091L14.38,19.082z"/>
</g>
<g>
	<path d="M12.343,27.06c-5.521,0-9.999,4.478-9.999,10c0,5.524,4.478,10.001,9.999,10.001c5.524,0,10.001-4.477,10.001-10.001
		C22.344,31.537,17.867,27.06,12.343,27.06z M14.38,43.356l-4.091-4.092l-2.211-2.21l2.211-2.211l4.08-4.08l2.212,2.212l-4.061,4.1
		l4.092,4.092L14.38,43.356z"/>
</g>
</svg>
