<?xml version="1.0" encoding="utf-8"?>
<!-- Generator: Adobe Illustrator 17.0.1, SVG Export Plug-In . SVG Version: 6.00 Build 0)  -->
<!DOCTYPE svg PUBLIC "-//W3C//DTD SVG 1.1//EN" "http://www.w3.org/Graphics/SVG/1.1/DTD/svg11.dtd">
<svg version="1.1" id="Layer_1" xmlns="http://www.w3.org/2000/svg" xmlns:xlink="http://www.w3.org/1999/xlink" x="0px" y="0px"
	 width="25px" height="50px" viewBox="0 0 25 50" enable-background="new 0 0 25 50" xml:space="preserve">
<path fill="#FFFFFF" d="M11.999,2C5.65,2,0.5,7.149,0.5,13.499C0.5,19.852,5.65,25,11.999,25C18.352,25,23.5,19.852,23.5,13.499
	C23.5,7.149,18.352,2,11.999,2z M17.956,15.24h-4.132v4.218h-3.595V15.24H6.044v-3.595h4.185V7.546h3.595v4.099h4.132V15.24z"/>
<path d="M11.749,27C5.4,27,0.25,32.149,0.25,38.499C0.25,44.852,5.4,50,11.749,50c6.352,0,11.501-5.148,11.501-11.501
	C23.25,32.149,18.102,27,11.749,27z M17.706,40.24h-4.132v4.218H9.979V40.24H5.794v-3.595h4.185v-4.099h3.595v4.099h4.132V40.24z"/>
</svg>
