<?xml version="1.0" encoding="utf-8"?>
<!-- Generator: Adobe Illustrator 16.0.0, SVG Export Plug-In . SVG Version: 6.00 Build 0)  -->
<!DOCTYPE svg PUBLIC "-//W3C//DTD SVG 1.1//EN" "http://www.w3.org/Graphics/SVG/1.1/DTD/svg11.dtd">
<svg version="1.1" id="Layer_1" xmlns="http://www.w3.org/2000/svg" xmlns:xlink="http://www.w3.org/1999/xlink" x="0px" y="0px"
	 width="25px" height="50px" viewBox="0 0 25 50" enable-background="new 0 0 25 50" xml:space="preserve">
<path d="M18.472,33.735c0-3.711-3.009-6.723-6.723-6.723c-3.712,0-6.721,3.012-6.721,6.723c0,0.988,0.217,1.923,0.601,2.769H5.621
	l6.126,12.245l5.876-11.751c0.076-0.13,0.14-0.267,0.205-0.402l0.045-0.092h-0.001C18.255,35.659,18.472,34.724,18.472,33.735z
	 M11.751,35.646c-1.529,0-2.767-1.238-2.767-2.767c0-1.527,1.237-2.767,2.767-2.767c1.528,0,2.765,1.239,2.765,2.767
	C14.516,34.407,13.279,35.646,11.751,35.646z"/>
<path fill="#8F8F8F" d="M18.687,9.391c0-3.811-3.09-6.902-6.902-6.902c-3.812,0-6.901,3.092-6.901,6.902
	c0,1.015,0.223,1.975,0.617,2.843l-0.008,0.001l6.289,12.573l6.034-12.066c0.078-0.133,0.143-0.273,0.21-0.413l0.046-0.094
	l-0.001-0.001C18.464,11.367,18.687,10.407,18.687,9.391z M11.785,11.353c-1.57,0-2.84-1.271-2.84-2.841
	c0-1.568,1.27-2.841,2.84-2.841c1.569,0,2.84,1.272,2.84,2.841C14.625,10.082,13.354,11.353,11.785,11.353z"/>
</svg>