<?xml version="1.0" encoding="utf-8"?>
<!-- Generator: Adobe Illustrator 18.0.0, SVG Export Plug-In . SVG Version: 6.00 Build 0)  -->
<!DOCTYPE svg PUBLIC "-//W3C//DTD SVG 1.1//EN" "http://www.w3.org/Graphics/SVG/1.1/DTD/svg11.dtd">
<svg version="1.1" id="Layer_1" xmlns="http://www.w3.org/2000/svg" xmlns:xlink="http://www.w3.org/1999/xlink" x="0px" y="0px"
	 viewBox="0 0 25 50" enable-background="new 0 0 25 50" xml:space="preserve">
<path fill="#8F8F8F" d="M18.7,9.4c0-3.8-3.1-6.9-6.9-6.9C8,2.5,4.9,5.6,4.9,9.4c0,1,0.2,2,0.6,2.8l0,0l6.3,12.6l6-12.1
	c0.1-0.1,0.1-0.3,0.2-0.4l0-0.1l0,0C18.5,11.4,18.7,10.4,18.7,9.4z M15.2,8.3c-0.6,0.6-1.6,1.4-1.6,1.4s0.3,1.3,0.4,2.1
	c0,0.1,0,0.2-0.1,0.2c-0.1,0-0.2,0-0.2,0C13,11.7,11.9,11,11.9,11s-1.1,0.6-1.9,1.1c-0.1,0-0.2,0-0.2,0c-0.1,0-0.1-0.1-0.1-0.2
	c0.2-0.8,0.4-2.1,0.4-2.1s-1-0.9-1.6-1.4C8.6,8.3,8.5,8.2,8.6,8.1C8.6,8.1,8.7,8,8.7,8c0.9-0.1,2.1-0.2,2.1-0.2s0.5-1.2,0.9-2
	c0-0.1,0.1-0.1,0.2-0.1c0.1,0,0.2,0,0.2,0.1c0.4,0.8,0.9,2,0.9,2s1.3,0.1,2.1,0.2c0.1,0,0.1,0.1,0.2,0.1C15.3,8.2,15.3,8.3,15.2,8.3
	z"/>
<path d="M18.7,33.9c0-3.8-3.1-6.9-6.9-6.9c-3.8,0-6.9,3.1-6.9,6.9c0,1,0.2,2,0.6,2.8l0,0l6.3,12.6l6-12.1c0.1-0.1,0.1-0.3,0.2-0.4
	l0-0.1l0,0C18.4,35.9,18.7,34.9,18.7,33.9z M15.2,32.9c-0.6,0.6-1.6,1.4-1.6,1.4s0.3,1.3,0.4,2.1c0,0.1,0,0.2-0.1,0.2
	c-0.1,0-0.2,0-0.2,0c-0.7-0.4-1.9-1.1-1.9-1.1s-1.1,0.6-1.9,1.1c-0.1,0-0.2,0-0.2,0c-0.1,0-0.1-0.1-0.1-0.2c0.2-0.8,0.4-2.1,0.4-2.1
	s-1-0.9-1.6-1.4c-0.1-0.1-0.1-0.1-0.1-0.2c0-0.1,0.1-0.1,0.2-0.1c0.9-0.1,2.1-0.2,2.1-0.2s0.5-1.2,0.9-2c0-0.1,0.1-0.1,0.2-0.1
	s0.2,0,0.2,0.1c0.4,0.8,0.9,2,0.9,2s1.3,0.1,2.1,0.2c0.1,0,0.1,0.1,0.2,0.1C15.3,32.7,15.3,32.8,15.2,32.9z"/>
</svg>
