<?xml version="1.0" encoding="utf-8"?>
<!-- Generator: Adobe Illustrator 17.0.0, SVG Export Plug-In . SVG Version: 6.00 Build 0)  -->
<!DOCTYPE svg PUBLIC "-//W3C//DTD SVG 1.1//EN" "http://www.w3.org/Graphics/SVG/1.1/DTD/svg11.dtd">
<svg version="1.1" id="Layer_1" xmlns="http://www.w3.org/2000/svg" xmlns:xlink="http://www.w3.org/1999/xlink" x="0px" y="0px"
	 width="30px" height="60px" viewBox="0 0 30 60" enable-background="new 0 0 30 60" xml:space="preserve">
<path fill="none" stroke="#AFAFAF" stroke-width="0.5" stroke-miterlimit="10" d="M26.646,23.705c0,1.624-1.317,2.941-2.941,2.941
	H4.295c-1.624,0-2.941-1.317-2.941-2.941V4.295c0-1.624,1.317-2.941,2.941-2.941h19.41c1.624,0,2.941,1.317,2.941,2.941V23.705z"/>
<g>
	<path fill="#A6A8AA" d="M21.429,40.956l-9.06,9.059c-0.243,0.242-0.636,0.242-0.878,0l-5.51-5.546
		c-0.242-0.243-0.242-0.637,0-0.879l1.316-1.316c0.243-0.243,0.636-0.243,0.878,0l3.759,3.784l7.299-7.299
		c0.242-0.242,0.635-0.242,0.879,0l1.317,1.318C21.673,40.319,21.673,40.714,21.429,40.956z"/>
</g>
<path fill="none" stroke="#AFAFAF" stroke-width="0.5" stroke-miterlimit="10" d="M26.646,53.705c0,1.624-1.317,2.941-2.941,2.941
	H4.295c-1.624,0-2.941-1.317-2.941-2.941v-19.41c0-1.624,1.317-2.941,2.941-2.941h19.41c1.624,0,2.941,1.317,2.941,2.941V53.705z"/>
</svg>
