<?xml version="1.0" encoding="utf-8"?>
<!-- Generator: Adobe Illustrator 18.0.0, SVG Export Plug-In . SVG Version: 6.00 Build 0)  -->
<!DOCTYPE svg PUBLIC "-//W3C//DTD SVG 1.1//EN" "http://www.w3.org/Graphics/SVG/1.1/DTD/svg11.dtd">
<svg version="1.1" id="Capa_1" xmlns="http://www.w3.org/2000/svg" xmlns:xlink="http://www.w3.org/1999/xlink" x="0px" y="0px"
	 viewBox="0 0 100 100" enable-background="new 0 0 100 100" xml:space="preserve">
<g>
	<path fill="#FFFFFF" d="M77.1,26.9h-18v-1c0-1.7-1.3-3-3-3H43.9c-1.7,0-3,1.3-3,3v1h-18c-1.1,0-2,0.9-2,2v36.2c0,1.1,0.9,2.1,2,2.1
		h10.3l-3.7,10h7l3.7-10h4.8v6h10.2v-6h4.8l3.7,10h7l-3.7-10h10.3c1.1,0,2-0.9,2-2.1V28.9C79.1,27.8,78.3,26.9,77.1,26.9z
		 M75.1,63.1H24.9V30.9h50.3V63.1z"/>
	<rect x="27.9" y="33.6" fill="#FFFFFF" width="44" height="26.8"/>
</g>
</svg>
