<?xml version="1.0" encoding="utf-8"?>
<!-- Generator: Adobe Illustrator 18.0.0, SVG Export Plug-In . SVG Version: 6.00 Build 0)  -->
<!DOCTYPE svg PUBLIC "-//W3C//DTD SVG 1.1//EN" "http://www.w3.org/Graphics/SVG/1.1/DTD/svg11.dtd">
<svg version="1.1" id="Capa_1" xmlns="http://www.w3.org/2000/svg" xmlns:xlink="http://www.w3.org/1999/xlink" x="0px" y="0px"
	 viewBox="0 1190.6 100 100" enable-background="new 0 1190.6 100 100" xml:space="preserve">
<g>
	<path fill="#FFFFFF" d="M80.9,1214.1H60.3v-1.1c0-1.9-1.5-3.4-3.4-3.4h-14c-1.9,0-3.4,1.5-3.4,3.4v1.1H18.9c-1.3,0-2.3,1-2.3,2.3
		v41.4c0,1.3,1,2.4,2.3,2.4h11.8l-4.2,11.4h8l4.2-11.4h5.5v6.9h11.7v-6.9h5.5l4.2,11.4h8l-4.2-11.4h11.8c1.3,0,2.3-1,2.3-2.4v-41.4
		C83.2,1215.1,82.3,1214.1,80.9,1214.1z M78.6,1255.5H21.2v-36.9h57.6v36.9H78.6z"/>
	<rect x="24.6" y="1221.7" fill="#FFFFFF" width="50.4" height="30.7"/>
</g>
</svg>
