<?xml version="1.0" encoding="utf-8"?>
<!-- Generator: Adobe Illustrator 18.0.0, SVG Export Plug-In . SVG Version: 6.00 Build 0)  -->
<!DOCTYPE svg PUBLIC "-//W3C//DTD SVG 1.1//EN" "http://www.w3.org/Graphics/SVG/1.1/DTD/svg11.dtd">
<svg version="1.1" id="Capa_1" xmlns="http://www.w3.org/2000/svg" xmlns:xlink="http://www.w3.org/1999/xlink" x="0px" y="0px"
	 viewBox="0 1190.6 100 100" enable-background="new 0 1190.6 100 100" xml:space="preserve">
<g>
	<path fill="#FFFFFF" d="M50.7,1261.9c-0.2,0.6-0.9,1-1.5,1l0,0c-0.6,0-1.2-0.4-1.5-1l-11.6-28.6l-4.2,8.6c-0.2,0.5-0.9,0.9-1.3,0.9
		h-9.9c0.1,0.2,0.2,0.4,0.4,0.6l2.7,3.9c0.6,0.9,1.3,1.7,2.2,2.6c8.9,9.7,15.2,16.9,19,21.5c2.8,3.3,7.1,3.4,9.9,0
		c3.7-4.4,9.5-11.3,17.9-20.3H54.9L50.7,1261.9z"/>
	<path fill="#FFFFFF" d="M66.3,1207.3c-4.6,0-8.9,1.8-12.1,4.8s-5.7,2.9-8.9,0c-3.2-2.9-7.5-4.6-12.1-4.6c-7.2,0-13.3,4.3-16.1,10.3
		c-1.8,3.9-1.6,11.1-0.4,15.3c0.6,2,1.3,4.3,2.6,6.6c0.2-0.1,0.5-0.1,0.7-0.1h9.9l5.3-10.8c0.2-0.5,0.9-0.9,1.5-0.9
		c0.6,0,1.1,0.4,1.3,1l11.4,28.3l3.2-8.4c0.2-0.6,0.9-1,1.5-1h19.9c0.4,0,0.7,0.1,1.1,0.5c0.5-0.6,1-1.5,1.6-2.2
		c1.5-2,4.4-6.6,5.9-10.8c1.8-5.7,1.8-10,1.8-10C84.3,1215.3,76.2,1207.3,66.3,1207.3z"/>
</g>
</svg>
