<?xml version="1.0" encoding="utf-8"?>
<!-- Generator: Adobe Illustrator 18.0.0, SVG Export Plug-In . SVG Version: 6.00 Build 0)  -->
<!DOCTYPE svg PUBLIC "-//W3C//DTD SVG 1.1//EN" "http://www.w3.org/Graphics/SVG/1.1/DTD/svg11.dtd">
<svg version="1.1" id="Capa_1" xmlns="http://www.w3.org/2000/svg" xmlns:xlink="http://www.w3.org/1999/xlink" x="0px" y="0px"
	 viewBox="0 0 100 100" enable-background="new 0 0 100 100" xml:space="preserve">
<g>
	<path fill="#FFFFFF" d="M69.8,18.2H30.2c-3.3,0-6,2.7-6,6v51.6c0,3.3,2.7,6,6,6h39.7c3.3,0,6-2.7,6-6V24.2
		C75.8,20.9,73.1,18.2,69.8,18.2z M50,79.8c-1.1,0-2-0.9-2-2s0.9-2,2-2c1.1,0,2,0.9,2,2S51.1,79.8,50,79.8z M67.9,73.8H32.1V26.2
		h35.7V73.8z"/>
</g>
</svg>
