<?xml version="1.0" encoding="utf-8"?>
<!-- Generator: Adobe Illustrator 18.0.0, SVG Export Plug-In . SVG Version: 6.00 Build 0)  -->
<!DOCTYPE svg PUBLIC "-//W3C//DTD SVG 1.1//EN" "http://www.w3.org/Graphics/SVG/1.1/DTD/svg11.dtd">
<svg version="1.1" id="Capa_1" xmlns="http://www.w3.org/2000/svg" xmlns:xlink="http://www.w3.org/1999/xlink" x="0px" y="0px"
	 viewBox="0 0 841.9 1190.6" enable-background="new 0 0 841.9 1190.6" xml:space="preserve">
<g>
	<path fill="#FFFFFF" d="M242.6,621.1c-14.1,0-25.5-11.4-25.5-25.5V213.3c0-14,11.4-25.5,25.5-25.5h50.9c14.1,0,25.5,11.5,25.5,25.5
		v382.2c0,14.1-11.4,25.5-25.5,25.5H242.6z M242.6,621.1"/>
	<path fill="#FFFFFF" d="M166,570.1c-13.9,0-25.3-11.4-25.3-25.5V264.3c0-14.1,11.4-25.5,25.3-25.5h25.5v331.2H166z M166,570.1"/>
	<path fill="#FFFFFF" d="M548.3,621.1c-13.9,0-25.4-11.4-25.4-25.5V213.3c0-14,11.4-25.5,25.4-25.5h51c14.1,0,25.5,11.5,25.5,25.5
		v382.2c0,14.1-11.4,25.5-25.5,25.5H548.3z M548.3,621.1"/>
	<path fill="#FFFFFF" d="M650.3,570.1V238.8h25.4c14.1,0,25.5,11.4,25.5,25.5v280.2c0,14.1-11.4,25.5-25.5,25.5H650.3z M650.3,570.1
		"/>
	<path fill="#FFFFFF" d="M726.7,366.2h-51v76.4h51c14.1,0,25.5-11.4,25.5-25.5v-25.4C752.2,377.7,740.8,366.2,726.7,366.2
		L726.7,366.2z M726.7,366.2"/>
	<path fill="#FFFFFF" d="M166,366.2h-50.9c-14.1,0-25.5,11.4-25.5,25.5v25.4c0,14.1,11.4,25.5,25.5,25.5H166V366.2z M166,366.2"/>
	<rect x="293.4" y="366.2" fill="#FFFFFF" width="254.8" height="76.4"/>
</g>
</svg>
