<?xml version="1.0" encoding="utf-8"?>
<!-- Generator: Adobe Illustrator 18.0.0, SVG Export Plug-In . SVG Version: 6.00 Build 0)  -->
<!DOCTYPE svg PUBLIC "-//W3C//DTD SVG 1.1//EN" "http://www.w3.org/Graphics/SVG/1.1/DTD/svg11.dtd">
<svg version="1.1" id="Capa_1" xmlns="http://www.w3.org/2000/svg" xmlns:xlink="http://www.w3.org/1999/xlink" x="0px" y="0px"
	 viewBox="0 1190.6 100 100" enable-background="new 0 1190.6 100 100" xml:space="preserve">
<g>
	<path fill="#FFFFFF" d="M18.6,1263.2c-2.4,2.4-2.4,6.4,0,8.8c1.2,1.2,2.8,1.8,4.4,1.8c1.6,0,3.2-0.6,4.4-1.8l20.4-20.4l-8.8-8.8
		L18.6,1263.2z"/>
	<path fill="#FFFFFF" d="M69.7,1225.3l8.9-4.6l4.7-9l-4.3-4.3l-9,4.7l-4.6,8.9l-10.8,10.8l4.4,4.4L69.7,1225.3z"/>
	<path fill="#FFFFFF" d="M71.6,1248.9l-0.8-0.1c-1.5,0-3,0.3-4.3,0.8l-25.6-25.6c0.5-1.4,0.8-2.8,0.8-4.3l-0.1-0.8
		c-0.4-6.5-5.8-11.6-12.4-11.6c-1.9,0-3.7,0.5-5.4,1.2l8.3,8.3c0.4,0.4,0.8,1,0.9,1.5c0.5,1.5,0.3,3.2-0.9,4.4
		c-0.8,0.8-1.9,1.2-2.9,1.2c-0.5,0-1-0.1-1.4-0.3c-0.5-0.2-1.1-0.5-1.5-0.9l-8.3-8.3c-0.8,1.6-1.3,3.4-1.3,5.3
		c0,6.6,5.1,11.9,11.6,12.4l0.9,0.1c1.5,0,3-0.3,4.3-0.8l25.6,25.5c-0.5,1.3-0.8,2.8-0.8,4.3l0.1,0.9c0.4,6.5,5.8,11.6,12.4,11.6
		c1.9,0,3.7-0.5,5.3-1.3l-8.3-8.3c-0.4-0.4-0.7-1-1-1.5c-0.5-1.5-0.2-3.2,1-4.4c0.8-0.8,1.9-1.2,2.9-1.2c0.5,0,1,0.1,1.4,0.3
		c0.5,0.2,1,0.5,1.5,0.9l8.3,8.3c0.8-1.6,1.2-3.4,1.2-5.4C83.2,1254.7,78.1,1249.3,71.6,1248.9L71.6,1248.9z"/>
</g>
</svg>
