<?xml version="1.0" encoding="utf-8"?>
<!-- Generator: Adobe Illustrator 18.0.0, SVG Export Plug-In . SVG Version: 6.00 Build 0)  -->
<!DOCTYPE svg PUBLIC "-//W3C//DTD SVG 1.1//EN" "http://www.w3.org/Graphics/SVG/1.1/DTD/svg11.dtd">
<svg version="1.1" id="Layer_1" xmlns="http://www.w3.org/2000/svg" xmlns:xlink="http://www.w3.org/1999/xlink" x="0px" y="0px"
	 viewBox="0 0 90 90" enable-background="new 0 0 90 90" xml:space="preserve">
<path fill="#FFFFFF" d="M37.3,37.2c0,0-8.8,1-14.8,1.6c-0.5,0.1-1,0.4-1.2,1c-0.2,0.5,0,1.1,0.4,1.5c4.4,4,11,10,11,10
	s-1.8,8.7-3,14.5c-0.1,0.5,0.1,1.1,0.5,1.4c0.5,0.3,1.1,0.3,1.5,0.1c5.2-2.9,12.9-7.3,12.9-7.3s7.7,4.4,12.9,7.3
	c0.5,0.3,1.1,0.3,1.5-0.1c0.5-0.3,0.6-0.9,0.5-1.4c-1.2-5.8-3-14.5-3-14.5s6.6-6,11-10c0.4-0.4,0.6-0.9,0.4-1.5
	c-0.2-0.5-0.7-0.9-1.2-1c-5.9-0.7-14.8-1.6-14.8-1.6S48.4,29,46,23.6c-0.2-0.5-0.7-0.8-1.3-0.8c-0.6,0-1.1,0.3-1.3,0.8
	C41,29,37.3,37.2,37.3,37.2L37.3,37.2z M37.3,37.2"/>
</svg>
